<mxfile host="Electron" agent="Mozilla/5.0 (Windows NT 10.0; Win64; x64) AppleWebKit/537.36 (KHTML, like Gecko) draw.io/27.0.9 Chrome/134.0.6998.205 Electron/35.4.0 Safari/537.36" version="27.0.9">
  <diagram name="ONLY- ERD" id="8zgiseqkgpxOAKtkTWHy">
    <mxGraphModel dx="1303" dy="783" grid="1" gridSize="10" guides="1" tooltips="1" connect="1" arrows="1" fold="1" page="1" pageScale="1" pageWidth="1169" pageHeight="827" math="0" shadow="0">
      <root>
        <mxCell id="0" />
        <mxCell id="1" parent="0" />
        <mxCell id="Eth2tqY2PSBvd6cBm0Ug-3" value="Problem 1" style="rounded=1;fillColor=#ffcccc;strokeColor=#36393d;fillStyle=auto;glass=0;shadow=0;labelBorderColor=none;labelBackgroundColor=none;textShadow=0;whiteSpace=wrap;html=1;fontSize=21;fontStyle=1" parent="1" vertex="1">
          <mxGeometry x="485" y="30" width="200" height="40" as="geometry" />
        </mxCell>
        <mxCell id="Eth2tqY2PSBvd6cBm0Ug-4" value="Student " style="whiteSpace=wrap;align=center;fillColor=#cce5ff;strokeColor=#36393d;rounded=0;labelBorderColor=none;labelBackgroundColor=none;fontSize=18;fontStyle=0" parent="1" vertex="1">
          <mxGeometry x="274.25" y="205" width="100" height="40" as="geometry" />
        </mxCell>
        <mxCell id="Eth2tqY2PSBvd6cBm0Ug-5" value="department " style="whiteSpace=wrap;align=center;fillColor=#cce5ff;strokeColor=#36393d;labelBackgroundColor=none;fontSize=18;fontStyle=0" parent="1" vertex="1">
          <mxGeometry x="885.75" y="205" width="130" height="40" as="geometry" />
        </mxCell>
        <mxCell id="Eth2tqY2PSBvd6cBm0Ug-6" value="Fname" style="ellipse;whiteSpace=wrap;align=center;fillColor=none;strokeColor=#36393d;labelBorderColor=none;labelBackgroundColor=default;fontSize=16;fontStyle=0" parent="1" vertex="1">
          <mxGeometry x="202.25" y="35" width="100" height="40" as="geometry" />
        </mxCell>
        <mxCell id="Eth2tqY2PSBvd6cBm0Ug-7" value="Lname" style="ellipse;whiteSpace=wrap;align=center;fillColor=none;strokeColor=#36393d;labelBorderColor=none;labelBackgroundColor=default;fontSize=16;fontStyle=0" parent="1" vertex="1">
          <mxGeometry x="340.75" y="35" width="100" height="40" as="geometry" />
        </mxCell>
        <mxCell id="Eth2tqY2PSBvd6cBm0Ug-8" value="st_address" style="ellipse;whiteSpace=wrap;align=center;fillColor=none;strokeColor=#36393d;labelBackgroundColor=none;fontSize=16;fontStyle=0" parent="1" vertex="1">
          <mxGeometry x="54.25" y="35" width="120" height="40" as="geometry" />
        </mxCell>
        <mxCell id="Eth2tqY2PSBvd6cBm0Ug-9" value="St_age" style="ellipse;whiteSpace=wrap;align=center;fillColor=none;strokeColor=#36393d;labelBackgroundColor=none;fontSize=16;fontStyle=0" parent="1" vertex="1">
          <mxGeometry x="54.25" y="120" width="100" height="40" as="geometry" />
        </mxCell>
        <mxCell id="Eth2tqY2PSBvd6cBm0Ug-10" value="studentName" style="ellipse;whiteSpace=wrap;align=center;fillColor=none;strokeColor=#36393d;labelBackgroundColor=none;fontSize=16;fontStyle=0" parent="1" vertex="1">
          <mxGeometry x="249.25" y="120" width="150" height="40" as="geometry" />
        </mxCell>
        <mxCell id="Eth2tqY2PSBvd6cBm0Ug-12" value="St_id" style="ellipse;whiteSpace=wrap;align=center;fontStyle=4;fillColor=none;strokeColor=#36393d;labelBackgroundColor=none;fontSize=16;" parent="1" vertex="1">
          <mxGeometry x="54.25" y="205" width="100" height="40" as="geometry" />
        </mxCell>
        <mxCell id="Eth2tqY2PSBvd6cBm0Ug-17" value="" style="endArrow=none;rounded=0;exitX=0.5;exitY=1;exitDx=0;exitDy=0;fontSize=16;fontStyle=0" parent="1" source="Eth2tqY2PSBvd6cBm0Ug-10" target="Eth2tqY2PSBvd6cBm0Ug-4" edge="1">
          <mxGeometry relative="1" as="geometry">
            <mxPoint x="410.75" y="165" as="sourcePoint" />
            <mxPoint x="570.75" y="165" as="targetPoint" />
          </mxGeometry>
        </mxCell>
        <mxCell id="Eth2tqY2PSBvd6cBm0Ug-18" value="" style="endArrow=none;rounded=0;entryX=0.5;entryY=1;entryDx=0;entryDy=0;fontSize=16;fontStyle=0" parent="1" source="Eth2tqY2PSBvd6cBm0Ug-10" target="Eth2tqY2PSBvd6cBm0Ug-7" edge="1">
          <mxGeometry relative="1" as="geometry">
            <mxPoint x="420.75" y="147" as="sourcePoint" />
            <mxPoint x="570.75" y="165" as="targetPoint" />
          </mxGeometry>
        </mxCell>
        <mxCell id="Eth2tqY2PSBvd6cBm0Ug-19" value="" style="endArrow=none;rounded=0;entryX=0.5;entryY=1;entryDx=0;entryDy=0;fontSize=16;fontStyle=0" parent="1" source="Eth2tqY2PSBvd6cBm0Ug-10" target="Eth2tqY2PSBvd6cBm0Ug-6" edge="1">
          <mxGeometry relative="1" as="geometry">
            <mxPoint x="431.75" y="156" as="sourcePoint" />
            <mxPoint x="475.75" y="115" as="targetPoint" />
          </mxGeometry>
        </mxCell>
        <mxCell id="Eth2tqY2PSBvd6cBm0Ug-21" value="" style="endArrow=none;rounded=0;entryX=0.5;entryY=1;entryDx=0;entryDy=0;fontSize=16;fontStyle=0" parent="1" source="Eth2tqY2PSBvd6cBm0Ug-4" target="Eth2tqY2PSBvd6cBm0Ug-8" edge="1">
          <mxGeometry relative="1" as="geometry">
            <mxPoint x="340.75" y="155" as="sourcePoint" />
            <mxPoint x="500.75" y="155" as="targetPoint" />
          </mxGeometry>
        </mxCell>
        <mxCell id="Eth2tqY2PSBvd6cBm0Ug-22" value="" style="endArrow=none;rounded=0;entryX=1;entryY=1;entryDx=0;entryDy=0;fontSize=16;fontStyle=0" parent="1" source="Eth2tqY2PSBvd6cBm0Ug-4" target="Eth2tqY2PSBvd6cBm0Ug-9" edge="1">
          <mxGeometry relative="1" as="geometry">
            <mxPoint x="340.75" y="155" as="sourcePoint" />
            <mxPoint x="200.75" y="217" as="targetPoint" />
          </mxGeometry>
        </mxCell>
        <mxCell id="Eth2tqY2PSBvd6cBm0Ug-23" value="" style="endArrow=none;rounded=0;exitX=1;exitY=0.5;exitDx=0;exitDy=0;fontSize=16;fontStyle=0" parent="1" source="Eth2tqY2PSBvd6cBm0Ug-12" target="Eth2tqY2PSBvd6cBm0Ug-4" edge="1">
          <mxGeometry relative="1" as="geometry">
            <mxPoint x="340.75" y="155" as="sourcePoint" />
            <mxPoint x="500.75" y="155" as="targetPoint" />
          </mxGeometry>
        </mxCell>
        <mxCell id="Eth2tqY2PSBvd6cBm0Ug-24" value="dept_id" style="ellipse;whiteSpace=wrap;align=center;fontStyle=4;fontSize=16;" parent="1" vertex="1">
          <mxGeometry x="846.75" y="120" width="100" height="40" as="geometry" />
        </mxCell>
        <mxCell id="Eth2tqY2PSBvd6cBm0Ug-25" value="dep_name" style="ellipse;whiteSpace=wrap;align=center;fontSize=16;fontStyle=0" parent="1" vertex="1">
          <mxGeometry x="1008.25" y="120" width="110" height="40" as="geometry" />
        </mxCell>
        <mxCell id="Eth2tqY2PSBvd6cBm0Ug-26" value="" style="endArrow=none;rounded=0;entryX=0.5;entryY=1;entryDx=0;entryDy=0;exitX=0.25;exitY=0;exitDx=0;exitDy=0;fontSize=16;fontStyle=0" parent="1" source="Eth2tqY2PSBvd6cBm0Ug-5" target="Eth2tqY2PSBvd6cBm0Ug-24" edge="1">
          <mxGeometry relative="1" as="geometry">
            <mxPoint x="590.75" y="225" as="sourcePoint" />
            <mxPoint x="750.75" y="225" as="targetPoint" />
          </mxGeometry>
        </mxCell>
        <mxCell id="Eth2tqY2PSBvd6cBm0Ug-27" value="" style="endArrow=none;rounded=0;entryX=0.5;entryY=1;entryDx=0;entryDy=0;exitX=0.75;exitY=0;exitDx=0;exitDy=0;fontSize=16;fontStyle=0" parent="1" source="Eth2tqY2PSBvd6cBm0Ug-5" target="Eth2tqY2PSBvd6cBm0Ug-25" edge="1">
          <mxGeometry relative="1" as="geometry">
            <mxPoint x="590.75" y="225" as="sourcePoint" />
            <mxPoint x="750.75" y="225" as="targetPoint" />
          </mxGeometry>
        </mxCell>
        <mxCell id="Eth2tqY2PSBvd6cBm0Ug-28" value="course " style="whiteSpace=wrap;align=center;fillColor=#cce5ff;strokeColor=#36393d;labelBackgroundColor=none;fontSize=18;fontStyle=0" parent="1" vertex="1">
          <mxGeometry x="385.75" y="540" width="100" height="40" as="geometry" />
        </mxCell>
        <mxCell id="Eth2tqY2PSBvd6cBm0Ug-29" value="crs_name" style="ellipse;whiteSpace=wrap;align=center;fontSize=16;fontStyle=0" parent="1" vertex="1">
          <mxGeometry x="508.25" y="752" width="100" height="40" as="geometry" />
        </mxCell>
        <mxCell id="Eth2tqY2PSBvd6cBm0Ug-30" value="crs_id" style="ellipse;whiteSpace=wrap;align=center;fontStyle=4;fontSize=16;" parent="1" vertex="1">
          <mxGeometry x="383.75" y="684" width="100" height="40" as="geometry" />
        </mxCell>
        <mxCell id="Eth2tqY2PSBvd6cBm0Ug-32" value="crs_duration " style="ellipse;whiteSpace=wrap;align=center;fontSize=16;fontStyle=0" parent="1" vertex="1">
          <mxGeometry x="239.75" y="752" width="140" height="40" as="geometry" />
        </mxCell>
        <mxCell id="Eth2tqY2PSBvd6cBm0Ug-33" value="crs_Description" style="ellipse;whiteSpace=wrap;align=center;fontSize=16;fontStyle=0" parent="1" vertex="1">
          <mxGeometry x="575.75" y="684" width="155" height="40" as="geometry" />
        </mxCell>
        <mxCell id="Eth2tqY2PSBvd6cBm0Ug-34" value="" style="endArrow=none;rounded=0;fontSize=16;fontStyle=0" parent="1" source="Eth2tqY2PSBvd6cBm0Ug-28" target="Eth2tqY2PSBvd6cBm0Ug-32" edge="1">
          <mxGeometry relative="1" as="geometry">
            <mxPoint x="577.25" y="550" as="sourcePoint" />
            <mxPoint x="737.25" y="550" as="targetPoint" />
          </mxGeometry>
        </mxCell>
        <mxCell id="Eth2tqY2PSBvd6cBm0Ug-35" value="" style="endArrow=none;rounded=0;fontSize=16;fontStyle=0" parent="1" source="Eth2tqY2PSBvd6cBm0Ug-30" target="Eth2tqY2PSBvd6cBm0Ug-28" edge="1">
          <mxGeometry relative="1" as="geometry">
            <mxPoint x="497.25000000000273" y="780" as="sourcePoint" />
            <mxPoint x="422.25" y="635" as="targetPoint" />
          </mxGeometry>
        </mxCell>
        <mxCell id="Eth2tqY2PSBvd6cBm0Ug-36" value="" style="endArrow=none;rounded=0;fontSize=16;fontStyle=0" parent="1" source="Eth2tqY2PSBvd6cBm0Ug-33" target="Eth2tqY2PSBvd6cBm0Ug-28" edge="1">
          <mxGeometry relative="1" as="geometry">
            <mxPoint x="577.25" y="550" as="sourcePoint" />
            <mxPoint x="737.25" y="550" as="targetPoint" />
          </mxGeometry>
        </mxCell>
        <mxCell id="Eth2tqY2PSBvd6cBm0Ug-38" value="" style="endArrow=none;rounded=0;fontSize=16;fontStyle=0" parent="1" source="Eth2tqY2PSBvd6cBm0Ug-28" target="Eth2tqY2PSBvd6cBm0Ug-29" edge="1">
          <mxGeometry relative="1" as="geometry">
            <mxPoint x="577.25" y="550" as="sourcePoint" />
            <mxPoint x="737.25" y="550" as="targetPoint" />
          </mxGeometry>
        </mxCell>
        <mxCell id="Eth2tqY2PSBvd6cBm0Ug-39" value="instructor " style="whiteSpace=wrap;align=center;fillColor=#cce5ff;strokeColor=#36393d;labelBackgroundColor=none;fontSize=18;fontStyle=0" parent="1" vertex="1">
          <mxGeometry x="900.75" y="540" width="100" height="40" as="geometry" />
        </mxCell>
        <mxCell id="Eth2tqY2PSBvd6cBm0Ug-40" value="ins_hourRate" style="ellipse;whiteSpace=wrap;align=center;fontSize=16;fontStyle=0" parent="1" vertex="1">
          <mxGeometry x="1020.75" y="753" width="140" height="40" as="geometry" />
        </mxCell>
        <mxCell id="Eth2tqY2PSBvd6cBm0Ug-41" value="ins_salary" style="ellipse;whiteSpace=wrap;align=center;fontSize=16;fontStyle=0" parent="1" vertex="1">
          <mxGeometry x="1048.25" y="670" width="110" height="40" as="geometry" />
        </mxCell>
        <mxCell id="Eth2tqY2PSBvd6cBm0Ug-42" value="ins_name" style="ellipse;whiteSpace=wrap;align=center;fontSize=16;fontStyle=0" parent="1" vertex="1">
          <mxGeometry x="790.75" y="753" width="110" height="40" as="geometry" />
        </mxCell>
        <mxCell id="Eth2tqY2PSBvd6cBm0Ug-43" value="ins_bouns" style="ellipse;whiteSpace=wrap;align=center;fontSize=16;fontStyle=0" parent="1" vertex="1">
          <mxGeometry x="1053.25" y="610" width="110" height="40" as="geometry" />
        </mxCell>
        <mxCell id="Eth2tqY2PSBvd6cBm0Ug-44" value="ins_address" style="ellipse;whiteSpace=wrap;align=center;fontSize=16;fontStyle=0" parent="1" vertex="1">
          <mxGeometry x="1040.75" y="540" width="120" height="40" as="geometry" />
        </mxCell>
        <mxCell id="Eth2tqY2PSBvd6cBm0Ug-45" value="ins_id" style="ellipse;whiteSpace=wrap;align=center;fontStyle=4;fontSize=16;" parent="1" vertex="1">
          <mxGeometry x="910.75" y="684" width="100" height="40" as="geometry" />
        </mxCell>
        <mxCell id="Eth2tqY2PSBvd6cBm0Ug-47" value="" style="endArrow=none;rounded=0;fontSize=16;fontStyle=0" parent="1" source="Eth2tqY2PSBvd6cBm0Ug-44" target="Eth2tqY2PSBvd6cBm0Ug-39" edge="1">
          <mxGeometry relative="1" as="geometry">
            <mxPoint x="730.75" y="545" as="sourcePoint" />
            <mxPoint x="890.75" y="545" as="targetPoint" />
          </mxGeometry>
        </mxCell>
        <mxCell id="Eth2tqY2PSBvd6cBm0Ug-48" value="" style="endArrow=none;rounded=0;entryX=1;entryY=0.75;entryDx=0;entryDy=0;fontSize=16;fontStyle=0" parent="1" source="Eth2tqY2PSBvd6cBm0Ug-43" target="Eth2tqY2PSBvd6cBm0Ug-39" edge="1">
          <mxGeometry relative="1" as="geometry">
            <mxPoint x="1040.75" y="565" as="sourcePoint" />
            <mxPoint x="890.75" y="545" as="targetPoint" />
          </mxGeometry>
        </mxCell>
        <mxCell id="Eth2tqY2PSBvd6cBm0Ug-49" value="" style="endArrow=none;rounded=0;fontSize=16;fontStyle=0" parent="1" source="Eth2tqY2PSBvd6cBm0Ug-39" target="Eth2tqY2PSBvd6cBm0Ug-42" edge="1">
          <mxGeometry relative="1" as="geometry">
            <mxPoint x="730.75" y="545" as="sourcePoint" />
            <mxPoint x="890.75" y="545" as="targetPoint" />
          </mxGeometry>
        </mxCell>
        <mxCell id="Eth2tqY2PSBvd6cBm0Ug-50" value="" style="endArrow=none;rounded=0;fontSize=16;fontStyle=0" parent="1" source="Eth2tqY2PSBvd6cBm0Ug-45" target="Eth2tqY2PSBvd6cBm0Ug-39" edge="1">
          <mxGeometry relative="1" as="geometry">
            <mxPoint x="730.75" y="545" as="sourcePoint" />
            <mxPoint x="890.75" y="545" as="targetPoint" />
          </mxGeometry>
        </mxCell>
        <mxCell id="Eth2tqY2PSBvd6cBm0Ug-51" value="" style="endArrow=none;rounded=0;entryX=0.75;entryY=1;entryDx=0;entryDy=0;fontSize=16;fontStyle=0" parent="1" source="Eth2tqY2PSBvd6cBm0Ug-41" target="Eth2tqY2PSBvd6cBm0Ug-39" edge="1">
          <mxGeometry relative="1" as="geometry">
            <mxPoint x="730.75" y="545" as="sourcePoint" />
            <mxPoint x="890.75" y="545" as="targetPoint" />
          </mxGeometry>
        </mxCell>
        <mxCell id="Eth2tqY2PSBvd6cBm0Ug-52" value="" style="endArrow=none;rounded=0;fontSize=16;fontStyle=0" parent="1" source="Eth2tqY2PSBvd6cBm0Ug-40" target="Eth2tqY2PSBvd6cBm0Ug-39" edge="1">
          <mxGeometry relative="1" as="geometry">
            <mxPoint x="730.75" y="545" as="sourcePoint" />
            <mxPoint x="890.75" y="545" as="targetPoint" />
          </mxGeometry>
        </mxCell>
        <mxCell id="Eth2tqY2PSBvd6cBm0Ug-59" value="grade " style="ellipse;whiteSpace=wrap;align=center;fillColor=#eeeeee;strokeColor=#36393d;labelBackgroundColor=none;fontSize=16;fontStyle=0" parent="1" vertex="1">
          <mxGeometry x="40.75" y="410" width="100" height="40" as="geometry" />
        </mxCell>
        <mxCell id="Eth2tqY2PSBvd6cBm0Ug-60" value="" style="endArrow=none;rounded=0;fontSize=16;fontStyle=0" parent="1" source="Eth2tqY2PSBvd6cBm0Ug-59" target="Eth2tqY2PSBvd6cBm0Ug-57" edge="1">
          <mxGeometry relative="1" as="geometry">
            <mxPoint x="372.25" y="340" as="sourcePoint" />
            <mxPoint x="532.25" y="340" as="targetPoint" />
          </mxGeometry>
        </mxCell>
        <mxCell id="Eth2tqY2PSBvd6cBm0Ug-64" value="" style="endArrow=none;rounded=0;fontSize=16;fontStyle=0;shape=link;" parent="1" source="Eth2tqY2PSBvd6cBm0Ug-57" target="Eth2tqY2PSBvd6cBm0Ug-4" edge="1">
          <mxGeometry relative="1" as="geometry">
            <mxPoint x="390.75" y="420" as="sourcePoint" />
            <mxPoint x="550.75" y="420" as="targetPoint" />
          </mxGeometry>
        </mxCell>
        <mxCell id="Eth2tqY2PSBvd6cBm0Ug-70" value="" style="endArrow=none;rounded=0;fontSize=16;fontStyle=0;shape=link;" parent="1" source="Eth2tqY2PSBvd6cBm0Ug-28" target="Eth2tqY2PSBvd6cBm0Ug-57" edge="1">
          <mxGeometry relative="1" as="geometry">
            <mxPoint x="440.75" y="330" as="sourcePoint" />
            <mxPoint x="600.75" y="330" as="targetPoint" />
          </mxGeometry>
        </mxCell>
        <mxCell id="Eth2tqY2PSBvd6cBm0Ug-72" value="" style="endArrow=none;rounded=0;entryX=0.5;entryY=1;entryDx=0;entryDy=0;exitX=0.5;exitY=0;exitDx=0;exitDy=0;fontSize=16;fontStyle=0;shape=link;" parent="1" source="Eth2tqY2PSBvd6cBm0Ug-71" target="Eth2tqY2PSBvd6cBm0Ug-5" edge="1">
          <mxGeometry relative="1" as="geometry">
            <mxPoint x="480.75" y="375" as="sourcePoint" />
            <mxPoint x="985.75" y="275" as="targetPoint" />
          </mxGeometry>
        </mxCell>
        <mxCell id="Eth2tqY2PSBvd6cBm0Ug-73" value="" style="endArrow=none;rounded=0;entryX=0.5;entryY=1;entryDx=0;entryDy=0;exitX=0.5;exitY=0;exitDx=0;exitDy=0;fontSize=16;fontStyle=0;shape=link;" parent="1" source="Eth2tqY2PSBvd6cBm0Ug-39" target="Eth2tqY2PSBvd6cBm0Ug-71" edge="1">
          <mxGeometry relative="1" as="geometry">
            <mxPoint x="480.75" y="355" as="sourcePoint" />
            <mxPoint x="640.75" y="355" as="targetPoint" />
          </mxGeometry>
        </mxCell>
        <mxCell id="Eth2tqY2PSBvd6cBm0Ug-77" value="hiring Date" style="ellipse;whiteSpace=wrap;align=center;fontSize=16;fontStyle=0;fillColor=#eeeeee;strokeColor=#36393d;" parent="1" vertex="1">
          <mxGeometry x="670.75" y="350" width="110" height="40" as="geometry" />
        </mxCell>
        <mxCell id="Eth2tqY2PSBvd6cBm0Ug-78" value="" style="endArrow=none;rounded=0;entryX=0;entryY=0.5;entryDx=0;entryDy=0;fontSize=16;fontStyle=0" parent="1" source="Eth2tqY2PSBvd6cBm0Ug-77" target="Eth2tqY2PSBvd6cBm0Ug-76" edge="1">
          <mxGeometry relative="1" as="geometry">
            <mxPoint x="480.75" y="375" as="sourcePoint" />
            <mxPoint x="640.75" y="375" as="targetPoint" />
          </mxGeometry>
        </mxCell>
        <mxCell id="Eth2tqY2PSBvd6cBm0Ug-80" value="" style="endArrow=none;rounded=0;shape=link;fontSize=16;fontStyle=0" parent="1" source="Eth2tqY2PSBvd6cBm0Ug-76" target="Eth2tqY2PSBvd6cBm0Ug-5" edge="1">
          <mxGeometry relative="1" as="geometry">
            <mxPoint x="480.75" y="375" as="sourcePoint" />
            <mxPoint x="956.8899999999999" y="275.3599999999999" as="targetPoint" />
          </mxGeometry>
        </mxCell>
        <mxCell id="Eth2tqY2PSBvd6cBm0Ug-81" value="" style="endArrow=none;rounded=0;entryX=0.25;entryY=0;entryDx=0;entryDy=0;exitX=0.5;exitY=1;exitDx=0;exitDy=0;fontSize=16;fontStyle=0" parent="1" source="Eth2tqY2PSBvd6cBm0Ug-76" target="Eth2tqY2PSBvd6cBm0Ug-39" edge="1">
          <mxGeometry relative="1" as="geometry">
            <mxPoint x="740.75" y="345" as="sourcePoint" />
            <mxPoint x="900.75" y="345" as="targetPoint" />
          </mxGeometry>
        </mxCell>
        <mxCell id="Eth2tqY2PSBvd6cBm0Ug-85" value="" style="endArrow=none;rounded=0;fontSize=16;fontStyle=0" parent="1" source="Eth2tqY2PSBvd6cBm0Ug-39" target="Eth2tqY2PSBvd6cBm0Ug-84" edge="1">
          <mxGeometry relative="1" as="geometry">
            <mxPoint x="630.75" y="495" as="sourcePoint" />
            <mxPoint x="790.75" y="495" as="targetPoint" />
          </mxGeometry>
        </mxCell>
        <mxCell id="Eth2tqY2PSBvd6cBm0Ug-86" value="" style="endArrow=none;rounded=0;exitX=1;exitY=0.5;exitDx=0;exitDy=0;fontSize=16;fontStyle=0" parent="1" source="Eth2tqY2PSBvd6cBm0Ug-28" target="Eth2tqY2PSBvd6cBm0Ug-84" edge="1">
          <mxGeometry relative="1" as="geometry">
            <mxPoint x="667.25" y="550" as="sourcePoint" />
            <mxPoint x="827.25" y="550" as="targetPoint" />
          </mxGeometry>
        </mxCell>
        <mxCell id="Eth2tqY2PSBvd6cBm0Ug-87" value="evaluation " style="ellipse;whiteSpace=wrap;align=center;fillColor=#eeeeee;strokeColor=#36393d;labelBackgroundColor=none;fontSize=16;fontStyle=0" parent="1" vertex="1">
          <mxGeometry x="642.25" y="450" width="110" height="40" as="geometry" />
        </mxCell>
        <mxCell id="Eth2tqY2PSBvd6cBm0Ug-88" value="" style="endArrow=none;rounded=0;fontSize=16;fontStyle=0" parent="1" source="Eth2tqY2PSBvd6cBm0Ug-84" target="Eth2tqY2PSBvd6cBm0Ug-87" edge="1">
          <mxGeometry relative="1" as="geometry">
            <mxPoint x="667.25" y="495" as="sourcePoint" />
            <mxPoint x="827.25" y="495" as="targetPoint" />
          </mxGeometry>
        </mxCell>
        <mxCell id="Eth2tqY2PSBvd6cBm0Ug-93" value="" style="endArrow=none;rounded=0;entryX=1;entryY=0.5;entryDx=0;entryDy=0;fontSize=16;fontStyle=0" parent="1" source="Eth2tqY2PSBvd6cBm0Ug-92" target="Eth2tqY2PSBvd6cBm0Ug-46" edge="1">
          <mxGeometry relative="1" as="geometry">
            <mxPoint x="360.75" y="600" as="sourcePoint" />
            <mxPoint x="520.75" y="600" as="targetPoint" />
          </mxGeometry>
        </mxCell>
        <mxCell id="Eth2tqY2PSBvd6cBm0Ug-94" value="" style="endArrow=none;rounded=0;fontSize=16;fontStyle=0;shape=link;" parent="1" source="Eth2tqY2PSBvd6cBm0Ug-28" target="Eth2tqY2PSBvd6cBm0Ug-92" edge="1">
          <mxGeometry relative="1" as="geometry">
            <mxPoint x="397.25" y="600" as="sourcePoint" />
            <mxPoint x="557.25" y="600" as="targetPoint" />
          </mxGeometry>
        </mxCell>
        <mxCell id="Eth2tqY2PSBvd6cBm0Ug-97" value="Problem 2" style="rounded=1;fillColor=#ffcccc;strokeColor=#36393d;fillStyle=auto;glass=0;shadow=0;labelBorderColor=none;labelBackgroundColor=none;textShadow=0;whiteSpace=wrap;html=1;fontSize=21;fontStyle=1" parent="1" vertex="1">
          <mxGeometry x="485" y="860" width="200" height="40" as="geometry" />
        </mxCell>
        <mxCell id="Eth2tqY2PSBvd6cBm0Ug-99" value="" style="group;fontSize=16;fontStyle=0" parent="1" vertex="1" connectable="0">
          <mxGeometry x="215.75" y="370" width="157" height="120" as="geometry" />
        </mxCell>
        <mxCell id="Eth2tqY2PSBvd6cBm0Ug-57" value="take " style="shape=rhombus;perimeter=rhombusPerimeter;whiteSpace=wrap;align=center;fillColor=#f9f7ed;strokeColor=#36393d;labelBackgroundColor=none;fontSize=16;fontStyle=0" parent="Eth2tqY2PSBvd6cBm0Ug-99" vertex="1">
          <mxGeometry x="35" y="30" width="120" height="60" as="geometry" />
        </mxCell>
        <mxCell id="Eth2tqY2PSBvd6cBm0Ug-68" value="M" style="text;align=center;verticalAlign=middle;resizable=0;points=[];autosize=1;strokeColor=none;fillColor=none;fontSize=16;fontStyle=0" parent="Eth2tqY2PSBvd6cBm0Ug-99" vertex="1">
          <mxGeometry x="90" y="2" width="40" height="30" as="geometry" />
        </mxCell>
        <mxCell id="Eth2tqY2PSBvd6cBm0Ug-69" value="M" style="text;align=center;verticalAlign=middle;resizable=0;points=[];autosize=1;strokeColor=none;fillColor=none;fontSize=16;fontStyle=0" parent="Eth2tqY2PSBvd6cBm0Ug-99" vertex="1">
          <mxGeometry x="117" y="72" width="40" height="30" as="geometry" />
        </mxCell>
        <mxCell id="Eth2tqY2PSBvd6cBm0Ug-100" value="" style="group;fontSize=16;fontStyle=0" parent="1" vertex="1" connectable="0">
          <mxGeometry x="188.75" y="515" width="138.5" height="75" as="geometry" />
        </mxCell>
        <mxCell id="Eth2tqY2PSBvd6cBm0Ug-92" value="have " style="shape=rhombus;perimeter=rhombusPerimeter;whiteSpace=wrap;align=center;fillColor=#f9f7ed;strokeColor=#36393d;labelBackgroundColor=none;fontSize=16;fontStyle=0" parent="Eth2tqY2PSBvd6cBm0Ug-100" vertex="1">
          <mxGeometry y="15" width="120" height="60" as="geometry" />
        </mxCell>
        <mxCell id="Eth2tqY2PSBvd6cBm0Ug-95" value="M" style="text;align=center;verticalAlign=middle;resizable=0;points=[];autosize=1;strokeColor=none;fillColor=none;fontSize=16;fontStyle=0" parent="Eth2tqY2PSBvd6cBm0Ug-100" vertex="1">
          <mxGeometry x="92" width="40" height="30" as="geometry" />
        </mxCell>
        <mxCell id="Eth2tqY2PSBvd6cBm0Ug-96" value="1" style="text;align=center;verticalAlign=middle;resizable=0;points=[];autosize=1;strokeColor=none;fillColor=none;fontSize=16;fontStyle=0" parent="Eth2tqY2PSBvd6cBm0Ug-100" vertex="1">
          <mxGeometry width="30" height="30" as="geometry" />
        </mxCell>
        <mxCell id="Eth2tqY2PSBvd6cBm0Ug-46" value="topic" style="whiteSpace=wrap;align=center;fillColor=#cce5ff;strokeColor=#36393d;labelBackgroundColor=none;fontSize=18;fontStyle=0" parent="1" vertex="1">
          <mxGeometry x="20.75" y="540" width="100" height="40" as="geometry" />
        </mxCell>
        <mxCell id="Eth2tqY2PSBvd6cBm0Ug-53" value="top_name " style="ellipse;whiteSpace=wrap;align=center;fontSize=16;fontStyle=0" parent="1" vertex="1">
          <mxGeometry x="90.75" y="684" width="120" height="40" as="geometry" />
        </mxCell>
        <mxCell id="Eth2tqY2PSBvd6cBm0Ug-54" value="top_id " style="ellipse;whiteSpace=wrap;align=center;fontStyle=4;fontSize=16;" parent="1" vertex="1">
          <mxGeometry x="20.75" y="753" width="100" height="40" as="geometry" />
        </mxCell>
        <mxCell id="Eth2tqY2PSBvd6cBm0Ug-55" value="" style="endArrow=none;rounded=0;fontSize=16;fontStyle=0" parent="1" source="Eth2tqY2PSBvd6cBm0Ug-46" target="Eth2tqY2PSBvd6cBm0Ug-53" edge="1">
          <mxGeometry relative="1" as="geometry">
            <mxPoint x="358.75" y="425" as="sourcePoint" />
            <mxPoint x="518.75" y="425" as="targetPoint" />
          </mxGeometry>
        </mxCell>
        <mxCell id="Eth2tqY2PSBvd6cBm0Ug-56" value="" style="endArrow=none;rounded=0;fontSize=16;fontStyle=0" parent="1" source="Eth2tqY2PSBvd6cBm0Ug-54" target="Eth2tqY2PSBvd6cBm0Ug-46" edge="1">
          <mxGeometry relative="1" as="geometry">
            <mxPoint x="358.75" y="425" as="sourcePoint" />
            <mxPoint x="518.75" y="425" as="targetPoint" />
          </mxGeometry>
        </mxCell>
        <mxCell id="Eth2tqY2PSBvd6cBm0Ug-103" value="" style="group;fontSize=16;fontStyle=0" parent="1" vertex="1" connectable="0">
          <mxGeometry x="620.75" y="515" width="136.5" height="75" as="geometry" />
        </mxCell>
        <mxCell id="Eth2tqY2PSBvd6cBm0Ug-84" value="teach " style="shape=rhombus;perimeter=rhombusPerimeter;whiteSpace=wrap;align=center;fillColor=#f9f7ed;strokeColor=#36393d;labelBackgroundColor=none;fontSize=16;fontStyle=0" parent="Eth2tqY2PSBvd6cBm0Ug-103" vertex="1">
          <mxGeometry x="16.5" y="15" width="120" height="60" as="geometry" />
        </mxCell>
        <mxCell id="Eth2tqY2PSBvd6cBm0Ug-90" value="M" style="text;align=center;verticalAlign=middle;resizable=0;points=[];autosize=1;strokeColor=none;fillColor=none;fontSize=16;fontStyle=0" parent="Eth2tqY2PSBvd6cBm0Ug-103" vertex="1">
          <mxGeometry x="120" width="40" height="30" as="geometry" />
        </mxCell>
        <mxCell id="Eth2tqY2PSBvd6cBm0Ug-91" value="M" style="text;align=center;verticalAlign=middle;resizable=0;points=[];autosize=1;strokeColor=none;fillColor=none;fontSize=16;fontStyle=0" parent="Eth2tqY2PSBvd6cBm0Ug-103" vertex="1">
          <mxGeometry width="40" height="30" as="geometry" />
        </mxCell>
        <mxCell id="Eth2tqY2PSBvd6cBm0Ug-106" value="" style="group;fontSize=16;fontStyle=0" parent="1" vertex="1" connectable="0">
          <mxGeometry x="773.25" y="300" width="145" height="124" as="geometry" />
        </mxCell>
        <mxCell id="Eth2tqY2PSBvd6cBm0Ug-76" value="manage " style="shape=rhombus;perimeter=rhombusPerimeter;whiteSpace=wrap;align=center;fillColor=#f9f7ed;strokeColor=#36393d;labelBackgroundColor=none;fontSize=16;fontStyle=0" parent="Eth2tqY2PSBvd6cBm0Ug-106" vertex="1">
          <mxGeometry x="25" y="8" width="120" height="60" as="geometry" />
        </mxCell>
        <mxCell id="Eth2tqY2PSBvd6cBm0Ug-83" value="1" style="text;align=center;verticalAlign=middle;resizable=0;points=[];autosize=1;strokeColor=none;fillColor=none;fontSize=16;fontStyle=0" parent="Eth2tqY2PSBvd6cBm0Ug-106" vertex="1">
          <mxGeometry x="55" y="68" width="30" height="30" as="geometry" />
        </mxCell>
        <mxCell id="Eth2tqY2PSBvd6cBm0Ug-82" value="1" style="text;align=center;verticalAlign=middle;resizable=0;points=[];autosize=1;strokeColor=none;fillColor=none;fontSize=16;fontStyle=0" parent="Eth2tqY2PSBvd6cBm0Ug-106" vertex="1">
          <mxGeometry x="85" y="-22" width="30" height="30" as="geometry" />
        </mxCell>
        <mxCell id="Eth2tqY2PSBvd6cBm0Ug-107" value="" style="group;fontSize=16;fontStyle=0" parent="1" vertex="1" connectable="0">
          <mxGeometry x="993.25" y="280" width="125" height="115" as="geometry" />
        </mxCell>
        <mxCell id="Eth2tqY2PSBvd6cBm0Ug-71" value="contain" style="shape=rhombus;perimeter=rhombusPerimeter;whiteSpace=wrap;align=center;fillColor=#f9f7ed;strokeColor=#36393d;labelBackgroundColor=none;fontSize=16;fontStyle=0" parent="Eth2tqY2PSBvd6cBm0Ug-107" vertex="1">
          <mxGeometry x="5" y="38" width="120" height="60" as="geometry" />
        </mxCell>
        <mxCell id="Eth2tqY2PSBvd6cBm0Ug-74" value="1" style="text;align=center;verticalAlign=middle;resizable=0;points=[];autosize=1;strokeColor=none;fillColor=none;fontSize=16;fontStyle=0" parent="Eth2tqY2PSBvd6cBm0Ug-107" vertex="1">
          <mxGeometry x="50" width="30" height="30" as="geometry" />
        </mxCell>
        <mxCell id="Eth2tqY2PSBvd6cBm0Ug-75" value="M" style="text;align=center;verticalAlign=middle;resizable=0;points=[];autosize=1;strokeColor=none;fillColor=none;fontSize=16;fontStyle=0" parent="Eth2tqY2PSBvd6cBm0Ug-107" vertex="1">
          <mxGeometry x="5" y="85" width="40" height="30" as="geometry" />
        </mxCell>
        <mxCell id="Eth2tqY2PSBvd6cBm0Ug-108" value="Musician" style="whiteSpace=wrap;align=center;fillColor=#cce5ff;strokeColor=#36393d;labelBackgroundColor=none;fontSize=18;fontStyle=0" parent="1" vertex="1">
          <mxGeometry x="250" y="1110" width="100" height="40" as="geometry" />
        </mxCell>
        <mxCell id="Eth2tqY2PSBvd6cBm0Ug-109" value="ID number" style="ellipse;whiteSpace=wrap;align=center;fontStyle=4;fontSize=16;" parent="1" vertex="1">
          <mxGeometry x="309" y="1030" width="121" height="40" as="geometry" />
        </mxCell>
        <mxCell id="Eth2tqY2PSBvd6cBm0Ug-113" value="address " style="ellipse;whiteSpace=wrap;align=center;fontSize=16;fontStyle=0" parent="1" vertex="1">
          <mxGeometry x="150" y="1030" width="100" height="40" as="geometry" />
        </mxCell>
        <mxCell id="Eth2tqY2PSBvd6cBm0Ug-114" value="phone number" style="ellipse;whiteSpace=wrap;align=center;fontSize=16;fontStyle=0" parent="1" vertex="1">
          <mxGeometry x="50" y="1190" width="160" height="40" as="geometry" />
        </mxCell>
        <mxCell id="Eth2tqY2PSBvd6cBm0Ug-115" value="city" style="ellipse;whiteSpace=wrap;align=center;fontSize=16;fontStyle=0" parent="1" vertex="1">
          <mxGeometry x="80" y="970" width="100" height="40" as="geometry" />
        </mxCell>
        <mxCell id="Eth2tqY2PSBvd6cBm0Ug-116" value="name" style="ellipse;whiteSpace=wrap;align=center;fontSize=16;fontStyle=0" parent="1" vertex="1">
          <mxGeometry x="60" y="1110" width="100" height="40" as="geometry" />
        </mxCell>
        <mxCell id="Eth2tqY2PSBvd6cBm0Ug-117" value="street" style="ellipse;whiteSpace=wrap;align=center;fontSize=16;fontStyle=0" parent="1" vertex="1">
          <mxGeometry x="210" y="970" width="100" height="40" as="geometry" />
        </mxCell>
        <mxCell id="Eth2tqY2PSBvd6cBm0Ug-118" value="" style="endArrow=none;rounded=0;fontSize=16;fontStyle=0" parent="1" source="Eth2tqY2PSBvd6cBm0Ug-108" target="Eth2tqY2PSBvd6cBm0Ug-109" edge="1">
          <mxGeometry relative="1" as="geometry">
            <mxPoint x="440" y="1140" as="sourcePoint" />
            <mxPoint x="600" y="1140" as="targetPoint" />
          </mxGeometry>
        </mxCell>
        <mxCell id="Eth2tqY2PSBvd6cBm0Ug-119" value="" style="endArrow=none;rounded=0;fontSize=16;fontStyle=0" parent="1" source="Eth2tqY2PSBvd6cBm0Ug-113" target="Eth2tqY2PSBvd6cBm0Ug-117" edge="1">
          <mxGeometry relative="1" as="geometry">
            <mxPoint x="440" y="1140" as="sourcePoint" />
            <mxPoint x="252" y="1020" as="targetPoint" />
          </mxGeometry>
        </mxCell>
        <mxCell id="Eth2tqY2PSBvd6cBm0Ug-121" value="" style="endArrow=none;rounded=0;fontSize=16;fontStyle=0" parent="1" source="Eth2tqY2PSBvd6cBm0Ug-113" target="Eth2tqY2PSBvd6cBm0Ug-108" edge="1">
          <mxGeometry relative="1" as="geometry">
            <mxPoint x="440" y="1140" as="sourcePoint" />
            <mxPoint x="600" y="1140" as="targetPoint" />
          </mxGeometry>
        </mxCell>
        <mxCell id="Eth2tqY2PSBvd6cBm0Ug-122" value="" style="endArrow=none;rounded=0;fontSize=16;fontStyle=0" parent="1" source="Eth2tqY2PSBvd6cBm0Ug-116" target="Eth2tqY2PSBvd6cBm0Ug-108" edge="1">
          <mxGeometry relative="1" as="geometry">
            <mxPoint x="440" y="1140" as="sourcePoint" />
            <mxPoint x="600" y="1140" as="targetPoint" />
          </mxGeometry>
        </mxCell>
        <mxCell id="Eth2tqY2PSBvd6cBm0Ug-123" value="" style="endArrow=none;rounded=0;fontSize=16;fontStyle=0" parent="1" source="Eth2tqY2PSBvd6cBm0Ug-113" target="Eth2tqY2PSBvd6cBm0Ug-115" edge="1">
          <mxGeometry relative="1" as="geometry">
            <mxPoint x="180" y="1040" as="sourcePoint" />
            <mxPoint x="600" y="1140" as="targetPoint" />
          </mxGeometry>
        </mxCell>
        <mxCell id="Eth2tqY2PSBvd6cBm0Ug-124" value="" style="endArrow=none;rounded=0;fontSize=16;fontStyle=0" parent="1" source="Eth2tqY2PSBvd6cBm0Ug-114" target="Eth2tqY2PSBvd6cBm0Ug-108" edge="1">
          <mxGeometry relative="1" as="geometry">
            <mxPoint x="290" y="1080" as="sourcePoint" />
            <mxPoint x="450" y="1080" as="targetPoint" />
          </mxGeometry>
        </mxCell>
        <mxCell id="Eth2tqY2PSBvd6cBm0Ug-130" value="Album" style="whiteSpace=wrap;align=center;fillColor=#cce5ff;strokeColor=#36393d;labelBackgroundColor=none;fontSize=18;fontStyle=0" parent="1" vertex="1">
          <mxGeometry x="251.5" y="1409" width="100" height="40" as="geometry" />
        </mxCell>
        <mxCell id="Eth2tqY2PSBvd6cBm0Ug-137" value="" style="endArrow=none;rounded=0;fontSize=16;fontStyle=0" parent="1" source="Eth2tqY2PSBvd6cBm0Ug-136" target="Eth2tqY2PSBvd6cBm0Ug-108" edge="1">
          <mxGeometry relative="1" as="geometry">
            <mxPoint x="530" y="1280" as="sourcePoint" />
            <mxPoint x="690" y="1280" as="targetPoint" />
          </mxGeometry>
        </mxCell>
        <mxCell id="Eth2tqY2PSBvd6cBm0Ug-138" value="" style="endArrow=none;rounded=0;fontSize=16;fontStyle=0" parent="1" source="Eth2tqY2PSBvd6cBm0Ug-125" target="Eth2tqY2PSBvd6cBm0Ug-136" edge="1">
          <mxGeometry relative="1" as="geometry">
            <mxPoint x="530" y="1280" as="sourcePoint" />
            <mxPoint x="690" y="1280" as="targetPoint" />
          </mxGeometry>
        </mxCell>
        <mxCell id="Eth2tqY2PSBvd6cBm0Ug-141" value="" style="group;fontSize=16;fontStyle=0" parent="1" vertex="1" connectable="0">
          <mxGeometry x="525" y="1098" width="175" height="62" as="geometry" />
        </mxCell>
        <mxCell id="Eth2tqY2PSBvd6cBm0Ug-136" value="play " style="shape=rhombus;perimeter=rhombusPerimeter;whiteSpace=wrap;align=center;fillColor=#f9f7ed;strokeColor=#36393d;labelBackgroundColor=none;fontSize=16;fontStyle=0" parent="Eth2tqY2PSBvd6cBm0Ug-141" vertex="1">
          <mxGeometry x="30" y="2" width="120" height="60" as="geometry" />
        </mxCell>
        <mxCell id="Eth2tqY2PSBvd6cBm0Ug-139" value="M" style="text;align=center;verticalAlign=middle;resizable=0;points=[];autosize=1;strokeColor=none;fillColor=none;fontSize=16;fontStyle=0" parent="Eth2tqY2PSBvd6cBm0Ug-141" vertex="1">
          <mxGeometry x="-5" width="40" height="30" as="geometry" />
        </mxCell>
        <mxCell id="Eth2tqY2PSBvd6cBm0Ug-140" value="M" style="text;align=center;verticalAlign=middle;resizable=0;points=[];autosize=1;strokeColor=none;fillColor=none;fontSize=16;fontStyle=0" parent="Eth2tqY2PSBvd6cBm0Ug-141" vertex="1">
          <mxGeometry x="135" width="40" height="30" as="geometry" />
        </mxCell>
        <mxCell id="Eth2tqY2PSBvd6cBm0Ug-143" value="" style="endArrow=none;rounded=0;fontSize=16;fontStyle=0;shape=link;" parent="1" source="Eth2tqY2PSBvd6cBm0Ug-130" target="Eth2tqY2PSBvd6cBm0Ug-142" edge="1">
          <mxGeometry relative="1" as="geometry">
            <mxPoint x="530" y="1280" as="sourcePoint" />
            <mxPoint x="690" y="1280" as="targetPoint" />
          </mxGeometry>
        </mxCell>
        <mxCell id="Eth2tqY2PSBvd6cBm0Ug-144" value="" style="endArrow=none;rounded=0;fontSize=16;fontStyle=0" parent="1" source="Eth2tqY2PSBvd6cBm0Ug-142" target="Eth2tqY2PSBvd6cBm0Ug-131" edge="1">
          <mxGeometry relative="1" as="geometry">
            <mxPoint x="530" y="1280" as="sourcePoint" />
            <mxPoint x="690" y="1280" as="targetPoint" />
          </mxGeometry>
        </mxCell>
        <mxCell id="Eth2tqY2PSBvd6cBm0Ug-147" value="" style="group;fontSize=16;fontStyle=0" parent="1" vertex="1" connectable="0">
          <mxGeometry x="515" y="1398" width="195" height="62" as="geometry" />
        </mxCell>
        <mxCell id="Eth2tqY2PSBvd6cBm0Ug-142" value="Has" style="shape=rhombus;perimeter=rhombusPerimeter;whiteSpace=wrap;align=center;fillColor=#f9f7ed;strokeColor=#36393d;labelBackgroundColor=none;fontSize=16;fontStyle=0" parent="Eth2tqY2PSBvd6cBm0Ug-147" vertex="1">
          <mxGeometry x="36.5" y="2" width="120" height="60" as="geometry" />
        </mxCell>
        <mxCell id="Eth2tqY2PSBvd6cBm0Ug-145" value="1" style="text;align=center;verticalAlign=middle;resizable=0;points=[];autosize=1;strokeColor=none;fillColor=none;fontSize=16;fontStyle=0" parent="Eth2tqY2PSBvd6cBm0Ug-147" vertex="1">
          <mxGeometry width="30" height="30" as="geometry" />
        </mxCell>
        <mxCell id="Eth2tqY2PSBvd6cBm0Ug-146" value="M" style="text;align=center;verticalAlign=middle;resizable=0;points=[];autosize=1;strokeColor=none;fillColor=none;fontSize=16;fontStyle=0" parent="Eth2tqY2PSBvd6cBm0Ug-147" vertex="1">
          <mxGeometry x="155" width="40" height="30" as="geometry" />
        </mxCell>
        <mxCell id="Eth2tqY2PSBvd6cBm0Ug-149" value="" style="endArrow=none;rounded=0;fontSize=16;fontStyle=0" parent="1" source="Eth2tqY2PSBvd6cBm0Ug-148" target="Eth2tqY2PSBvd6cBm0Ug-108" edge="1">
          <mxGeometry relative="1" as="geometry">
            <mxPoint x="530" y="1280" as="sourcePoint" />
            <mxPoint x="690" y="1280" as="targetPoint" />
          </mxGeometry>
        </mxCell>
        <mxCell id="Eth2tqY2PSBvd6cBm0Ug-150" value="" style="endArrow=none;rounded=0;fontSize=16;fontStyle=0;shape=link;" parent="1" source="Eth2tqY2PSBvd6cBm0Ug-148" target="Eth2tqY2PSBvd6cBm0Ug-131" edge="1">
          <mxGeometry relative="1" as="geometry">
            <mxPoint x="530" y="1280" as="sourcePoint" />
            <mxPoint x="690" y="1280" as="targetPoint" />
          </mxGeometry>
        </mxCell>
        <mxCell id="Eth2tqY2PSBvd6cBm0Ug-153" value="" style="group;fontSize=16;fontStyle=0" parent="1" vertex="1" connectable="0">
          <mxGeometry x="525" y="1218" width="150" height="83" as="geometry" />
        </mxCell>
        <mxCell id="Eth2tqY2PSBvd6cBm0Ug-148" value="perform" style="shape=rhombus;perimeter=rhombusPerimeter;whiteSpace=wrap;align=center;fillColor=#f9f7ed;strokeColor=#36393d;labelBackgroundColor=none;fontSize=16;fontStyle=0" parent="Eth2tqY2PSBvd6cBm0Ug-153" vertex="1">
          <mxGeometry x="-20" y="23" width="140" height="60" as="geometry" />
        </mxCell>
        <mxCell id="Eth2tqY2PSBvd6cBm0Ug-151" value="M" style="text;align=center;verticalAlign=middle;resizable=0;points=[];autosize=1;strokeColor=none;fillColor=none;fontSize=16;fontStyle=0" parent="Eth2tqY2PSBvd6cBm0Ug-153" vertex="1">
          <mxGeometry x="-5" width="40" height="30" as="geometry" />
        </mxCell>
        <mxCell id="Eth2tqY2PSBvd6cBm0Ug-152" value="M" style="text;align=center;verticalAlign=middle;resizable=0;points=[];autosize=1;strokeColor=none;fillColor=none;fontSize=16;fontStyle=0" parent="Eth2tqY2PSBvd6cBm0Ug-153" vertex="1">
          <mxGeometry x="110" y="53" width="40" height="30" as="geometry" />
        </mxCell>
        <mxCell id="Eth2tqY2PSBvd6cBm0Ug-155" value="" style="endArrow=none;rounded=0;fontSize=16;fontStyle=0;shape=link;" parent="1" source="Eth2tqY2PSBvd6cBm0Ug-154" target="Eth2tqY2PSBvd6cBm0Ug-130" edge="1">
          <mxGeometry relative="1" as="geometry">
            <mxPoint x="530" y="1280" as="sourcePoint" />
            <mxPoint x="690" y="1280" as="targetPoint" />
          </mxGeometry>
        </mxCell>
        <mxCell id="Eth2tqY2PSBvd6cBm0Ug-157" value="" style="endArrow=none;rounded=0;fontSize=16;fontStyle=0" parent="1" source="Eth2tqY2PSBvd6cBm0Ug-108" target="Eth2tqY2PSBvd6cBm0Ug-154" edge="1">
          <mxGeometry relative="1" as="geometry">
            <mxPoint x="530" y="1280" as="sourcePoint" />
            <mxPoint x="690" y="1280" as="targetPoint" />
          </mxGeometry>
        </mxCell>
        <mxCell id="Eth2tqY2PSBvd6cBm0Ug-163" value="" style="group;fontSize=16;fontStyle=0" parent="1" vertex="1" connectable="0">
          <mxGeometry x="234.75" y="1220" width="133.5" height="120" as="geometry" />
        </mxCell>
        <mxCell id="Eth2tqY2PSBvd6cBm0Ug-154" value="produce" style="shape=rhombus;perimeter=rhombusPerimeter;whiteSpace=wrap;align=center;fillColor=#f9f7ed;strokeColor=#36393d;labelBackgroundColor=none;fontSize=16;fontStyle=0" parent="Eth2tqY2PSBvd6cBm0Ug-163" vertex="1">
          <mxGeometry y="30" width="133.5" height="60" as="geometry" />
        </mxCell>
        <mxCell id="Eth2tqY2PSBvd6cBm0Ug-161" value="1" style="text;align=center;verticalAlign=middle;resizable=0;points=[];autosize=1;strokeColor=none;fillColor=none;fontSize=16;fontStyle=0" parent="Eth2tqY2PSBvd6cBm0Ug-163" vertex="1">
          <mxGeometry x="31.75" width="30" height="30" as="geometry" />
        </mxCell>
        <mxCell id="Eth2tqY2PSBvd6cBm0Ug-162" value="M" style="text;align=center;verticalAlign=middle;resizable=0;points=[];autosize=1;strokeColor=none;fillColor=none;fontSize=16;fontStyle=0" parent="Eth2tqY2PSBvd6cBm0Ug-163" vertex="1">
          <mxGeometry x="26.75" y="90" width="40" height="30" as="geometry" />
        </mxCell>
        <mxCell id="Eth2tqY2PSBvd6cBm0Ug-164" value="Problem 3" style="rounded=1;fillColor=#ffcccc;strokeColor=#36393d;fillStyle=auto;glass=0;shadow=0;labelBorderColor=none;labelBackgroundColor=none;textShadow=0;whiteSpace=wrap;html=1;fontSize=21;fontStyle=1" parent="1" vertex="1">
          <mxGeometry x="470" y="1700" width="200" height="40" as="geometry" />
        </mxCell>
        <mxCell id="VqWSWO_N2-ZdH-xex5rD-12" value="Property" style="whiteSpace=wrap;align=center;fillColor=#cce5ff;strokeColor=#36393d;fontSize=18;fontStyle=0" parent="1" vertex="1">
          <mxGeometry x="177" y="2125" width="100" height="40" as="geometry" />
        </mxCell>
        <mxCell id="VqWSWO_N2-ZdH-xex5rD-13" value="Property_ID " style="ellipse;whiteSpace=wrap;align=center;fontStyle=4;fontSize=16;" parent="1" vertex="1">
          <mxGeometry x="20" y="2125" width="130" height="40" as="geometry" />
        </mxCell>
        <mxCell id="VqWSWO_N2-ZdH-xex5rD-14" value="Zip_Code" style="ellipse;whiteSpace=wrap;align=center;fontSize=16;fontStyle=0" parent="1" vertex="1">
          <mxGeometry x="300" y="2315" width="118" height="40" as="geometry" />
        </mxCell>
        <mxCell id="VqWSWO_N2-ZdH-xex5rD-15" value="State" style="ellipse;whiteSpace=wrap;align=center;fontSize=16;fontStyle=0" parent="1" vertex="1">
          <mxGeometry x="170" y="2315" width="100" height="40" as="geometry" />
        </mxCell>
        <mxCell id="VqWSWO_N2-ZdH-xex5rD-16" value="City" style="ellipse;whiteSpace=wrap;align=center;fontSize=16;fontStyle=0" parent="1" vertex="1">
          <mxGeometry x="40" y="2315" width="100" height="40" as="geometry" />
        </mxCell>
        <mxCell id="VqWSWO_N2-ZdH-xex5rD-17" value="Address" style="ellipse;whiteSpace=wrap;align=center;fontSize=16;fontStyle=0" parent="1" vertex="1">
          <mxGeometry x="30" y="2225" width="100" height="40" as="geometry" />
        </mxCell>
        <mxCell id="VqWSWO_N2-ZdH-xex5rD-18" value="Location" style="ellipse;whiteSpace=wrap;align=center;fontSize=16;fontStyle=0" parent="1" vertex="1">
          <mxGeometry x="177" y="2225" width="100" height="40" as="geometry" />
        </mxCell>
        <mxCell id="VqWSWO_N2-ZdH-xex5rD-19" value="" style="group;fontSize=16;fontStyle=0" parent="1" vertex="1" connectable="0">
          <mxGeometry x="60" y="1820" width="334" height="100" as="geometry" />
        </mxCell>
        <mxCell id="VqWSWO_N2-ZdH-xex5rD-1" value="Sales offices" style="whiteSpace=wrap;align=center;fillColor=#dae8fc;strokeColor=#6c8ebf;fontSize=18;fontStyle=0" parent="VqWSWO_N2-ZdH-xex5rD-19" vertex="1">
          <mxGeometry x="100" y="60" width="130" height="40" as="geometry" />
        </mxCell>
        <mxCell id="VqWSWO_N2-ZdH-xex5rD-2" value="Office_Number" style="ellipse;whiteSpace=wrap;align=center;fontStyle=4;fontSize=16;" parent="VqWSWO_N2-ZdH-xex5rD-19" vertex="1">
          <mxGeometry x="179" width="155" height="40" as="geometry" />
        </mxCell>
        <mxCell id="VqWSWO_N2-ZdH-xex5rD-3" value="Location" style="ellipse;whiteSpace=wrap;align=center;fontSize=16;fontStyle=0" parent="VqWSWO_N2-ZdH-xex5rD-19" vertex="1">
          <mxGeometry width="120" height="40" as="geometry" />
        </mxCell>
        <mxCell id="VqWSWO_N2-ZdH-xex5rD-4" value="" style="endArrow=none;rounded=0;fontSize=16;fontStyle=0" parent="VqWSWO_N2-ZdH-xex5rD-19" source="VqWSWO_N2-ZdH-xex5rD-1" target="VqWSWO_N2-ZdH-xex5rD-2" edge="1">
          <mxGeometry relative="1" as="geometry">
            <mxPoint x="420" y="60" as="sourcePoint" />
            <mxPoint x="580" y="60" as="targetPoint" />
          </mxGeometry>
        </mxCell>
        <mxCell id="VqWSWO_N2-ZdH-xex5rD-5" value="" style="endArrow=none;rounded=0;fontSize=16;fontStyle=0" parent="VqWSWO_N2-ZdH-xex5rD-19" source="VqWSWO_N2-ZdH-xex5rD-1" target="VqWSWO_N2-ZdH-xex5rD-3" edge="1">
          <mxGeometry relative="1" as="geometry">
            <mxPoint x="420" y="60" as="sourcePoint" />
            <mxPoint x="580" y="60" as="targetPoint" />
          </mxGeometry>
        </mxCell>
        <mxCell id="VqWSWO_N2-ZdH-xex5rD-20" value="" style="group;fontSize=16;fontStyle=0" parent="1" vertex="1" connectable="0">
          <mxGeometry x="695" y="1820" width="370" height="100" as="geometry" />
        </mxCell>
        <mxCell id="VqWSWO_N2-ZdH-xex5rD-7" value=" Employee" style="whiteSpace=wrap;align=center;fillColor=#cce5ff;strokeColor=#36393d;fontSize=18;fontStyle=0" parent="VqWSWO_N2-ZdH-xex5rD-20" vertex="1">
          <mxGeometry x="135" y="60" width="100" height="40" as="geometry" />
        </mxCell>
        <mxCell id="VqWSWO_N2-ZdH-xex5rD-8" value=" Employee_ID" style="ellipse;whiteSpace=wrap;align=center;fontStyle=4;fontSize=16;" parent="VqWSWO_N2-ZdH-xex5rD-20" vertex="1">
          <mxGeometry x="215" width="155" height="40" as="geometry" />
        </mxCell>
        <mxCell id="VqWSWO_N2-ZdH-xex5rD-9" value="Employee_Name" style="ellipse;whiteSpace=wrap;align=center;fontSize=16;fontStyle=0" parent="VqWSWO_N2-ZdH-xex5rD-20" vertex="1">
          <mxGeometry width="170" height="40" as="geometry" />
        </mxCell>
        <mxCell id="VqWSWO_N2-ZdH-xex5rD-10" value="" style="endArrow=none;rounded=0;fontSize=16;fontStyle=0" parent="VqWSWO_N2-ZdH-xex5rD-20" source="VqWSWO_N2-ZdH-xex5rD-9" target="VqWSWO_N2-ZdH-xex5rD-7" edge="1">
          <mxGeometry relative="1" as="geometry">
            <mxPoint x="-205" y="180" as="sourcePoint" />
            <mxPoint x="-45" y="180" as="targetPoint" />
          </mxGeometry>
        </mxCell>
        <mxCell id="VqWSWO_N2-ZdH-xex5rD-11" value="" style="endArrow=none;rounded=0;fontSize=16;fontStyle=0" parent="VqWSWO_N2-ZdH-xex5rD-20" source="VqWSWO_N2-ZdH-xex5rD-8" target="VqWSWO_N2-ZdH-xex5rD-7" edge="1">
          <mxGeometry relative="1" as="geometry">
            <mxPoint x="-205" y="180" as="sourcePoint" />
            <mxPoint x="-45" y="180" as="targetPoint" />
          </mxGeometry>
        </mxCell>
        <mxCell id="PniLKxsiFBYMcNhb2fPU-1" style="edgeStyle=orthogonalEdgeStyle;rounded=0;orthogonalLoop=1;jettySize=auto;html=1;exitX=0.5;exitY=1;exitDx=0;exitDy=0;" parent="VqWSWO_N2-ZdH-xex5rD-20" source="VqWSWO_N2-ZdH-xex5rD-7" target="VqWSWO_N2-ZdH-xex5rD-7" edge="1">
          <mxGeometry relative="1" as="geometry" />
        </mxCell>
        <mxCell id="VqWSWO_N2-ZdH-xex5rD-21" value="" style="endArrow=none;rounded=0;fontSize=16;fontStyle=0" parent="1" source="VqWSWO_N2-ZdH-xex5rD-12" target="VqWSWO_N2-ZdH-xex5rD-13" edge="1">
          <mxGeometry relative="1" as="geometry">
            <mxPoint x="490" y="2025" as="sourcePoint" />
            <mxPoint x="650" y="2025" as="targetPoint" />
          </mxGeometry>
        </mxCell>
        <mxCell id="VqWSWO_N2-ZdH-xex5rD-22" value="" style="endArrow=none;rounded=0;fontSize=16;fontStyle=0" parent="1" source="VqWSWO_N2-ZdH-xex5rD-18" target="VqWSWO_N2-ZdH-xex5rD-12" edge="1">
          <mxGeometry relative="1" as="geometry">
            <mxPoint x="490" y="2025" as="sourcePoint" />
            <mxPoint x="650" y="2025" as="targetPoint" />
          </mxGeometry>
        </mxCell>
        <mxCell id="VqWSWO_N2-ZdH-xex5rD-23" value="" style="endArrow=none;rounded=0;fontSize=16;fontStyle=0" parent="1" source="VqWSWO_N2-ZdH-xex5rD-18" target="VqWSWO_N2-ZdH-xex5rD-14" edge="1">
          <mxGeometry relative="1" as="geometry">
            <mxPoint x="490" y="2025" as="sourcePoint" />
            <mxPoint x="650" y="2025" as="targetPoint" />
          </mxGeometry>
        </mxCell>
        <mxCell id="VqWSWO_N2-ZdH-xex5rD-24" value="" style="endArrow=none;rounded=0;fontSize=16;fontStyle=0" parent="1" source="VqWSWO_N2-ZdH-xex5rD-18" target="VqWSWO_N2-ZdH-xex5rD-15" edge="1">
          <mxGeometry relative="1" as="geometry">
            <mxPoint x="490" y="2025" as="sourcePoint" />
            <mxPoint x="650" y="2025" as="targetPoint" />
          </mxGeometry>
        </mxCell>
        <mxCell id="VqWSWO_N2-ZdH-xex5rD-25" value="" style="endArrow=none;rounded=0;fontSize=16;fontStyle=0" parent="1" source="VqWSWO_N2-ZdH-xex5rD-18" target="VqWSWO_N2-ZdH-xex5rD-16" edge="1">
          <mxGeometry relative="1" as="geometry">
            <mxPoint x="490" y="2025" as="sourcePoint" />
            <mxPoint x="650" y="2025" as="targetPoint" />
          </mxGeometry>
        </mxCell>
        <mxCell id="VqWSWO_N2-ZdH-xex5rD-26" value="" style="endArrow=none;rounded=0;fontSize=16;fontStyle=0" parent="1" source="VqWSWO_N2-ZdH-xex5rD-18" target="VqWSWO_N2-ZdH-xex5rD-17" edge="1">
          <mxGeometry relative="1" as="geometry">
            <mxPoint x="490" y="2025" as="sourcePoint" />
            <mxPoint x="650" y="2025" as="targetPoint" />
          </mxGeometry>
        </mxCell>
        <mxCell id="VqWSWO_N2-ZdH-xex5rD-27" value="Owner" style="whiteSpace=wrap;align=center;fillColor=#cce5ff;strokeColor=#36393d;fontSize=18;fontStyle=0" parent="1" vertex="1">
          <mxGeometry x="857.5" y="2125" width="100" height="40" as="geometry" />
        </mxCell>
        <mxCell id="VqWSWO_N2-ZdH-xex5rD-28" value="Owner_ID" style="ellipse;whiteSpace=wrap;align=center;fontStyle=4;fontSize=16;" parent="1" vertex="1">
          <mxGeometry x="800" y="2215" width="110" height="40" as="geometry" />
        </mxCell>
        <mxCell id="VqWSWO_N2-ZdH-xex5rD-29" value="Owner_Name" style="ellipse;whiteSpace=wrap;align=center;fontSize=16;fontStyle=0" parent="1" vertex="1">
          <mxGeometry x="950" y="2215" width="140" height="40" as="geometry" />
        </mxCell>
        <mxCell id="VqWSWO_N2-ZdH-xex5rD-30" value="" style="endArrow=none;rounded=0;fontSize=16;fontStyle=0" parent="1" source="VqWSWO_N2-ZdH-xex5rD-27" target="VqWSWO_N2-ZdH-xex5rD-28" edge="1">
          <mxGeometry relative="1" as="geometry">
            <mxPoint x="490" y="2025" as="sourcePoint" />
            <mxPoint x="650" y="2025" as="targetPoint" />
          </mxGeometry>
        </mxCell>
        <mxCell id="VqWSWO_N2-ZdH-xex5rD-31" value="" style="endArrow=none;rounded=0;fontSize=16;fontStyle=0" parent="1" source="VqWSWO_N2-ZdH-xex5rD-27" target="VqWSWO_N2-ZdH-xex5rD-29" edge="1">
          <mxGeometry relative="1" as="geometry">
            <mxPoint x="490" y="2025" as="sourcePoint" />
            <mxPoint x="650" y="2025" as="targetPoint" />
          </mxGeometry>
        </mxCell>
        <mxCell id="VqWSWO_N2-ZdH-xex5rD-33" value="" style="endArrow=none;rounded=0;shape=link;fontSize=16;fontStyle=0" parent="1" source="VqWSWO_N2-ZdH-xex5rD-1" target="VqWSWO_N2-ZdH-xex5rD-32" edge="1">
          <mxGeometry relative="1" as="geometry">
            <mxPoint x="490" y="1860" as="sourcePoint" />
            <mxPoint x="650" y="1860" as="targetPoint" />
          </mxGeometry>
        </mxCell>
        <mxCell id="VqWSWO_N2-ZdH-xex5rD-34" value="" style="endArrow=none;rounded=0;shape=link;fontSize=16;fontStyle=0" parent="1" source="VqWSWO_N2-ZdH-xex5rD-32" target="VqWSWO_N2-ZdH-xex5rD-7" edge="1">
          <mxGeometry relative="1" as="geometry">
            <mxPoint x="490" y="1860" as="sourcePoint" />
            <mxPoint x="650" y="1860" as="targetPoint" />
          </mxGeometry>
        </mxCell>
        <mxCell id="VqWSWO_N2-ZdH-xex5rD-37" value="" style="group;fontSize=16;fontStyle=0" parent="1" vertex="1" connectable="0">
          <mxGeometry x="467.5" y="1820" width="175" height="62" as="geometry" />
        </mxCell>
        <mxCell id="VqWSWO_N2-ZdH-xex5rD-32" value="assign" style="shape=rhombus;perimeter=rhombusPerimeter;whiteSpace=wrap;align=center;fillColor=#f9f7ed;strokeColor=#36393d;fontSize=16;fontStyle=0" parent="VqWSWO_N2-ZdH-xex5rD-37" vertex="1">
          <mxGeometry x="32.5" y="2" width="120" height="60" as="geometry" />
        </mxCell>
        <mxCell id="VqWSWO_N2-ZdH-xex5rD-35" value="1" style="text;align=center;verticalAlign=middle;resizable=0;points=[];autosize=1;strokeColor=none;fillColor=none;fontSize=16;fontStyle=0" parent="VqWSWO_N2-ZdH-xex5rD-37" vertex="1">
          <mxGeometry width="30" height="30" as="geometry" />
        </mxCell>
        <mxCell id="VqWSWO_N2-ZdH-xex5rD-36" value="M" style="text;align=center;verticalAlign=middle;resizable=0;points=[];autosize=1;strokeColor=none;fillColor=none;fontSize=16;fontStyle=0" parent="VqWSWO_N2-ZdH-xex5rD-37" vertex="1">
          <mxGeometry x="135" width="40" height="30" as="geometry" />
        </mxCell>
        <mxCell id="VqWSWO_N2-ZdH-xex5rD-38" value="" style="group;fontSize=16;fontStyle=0" parent="1" vertex="1" connectable="0">
          <mxGeometry x="755" y="1030" width="295" height="120" as="geometry" />
        </mxCell>
        <mxCell id="Eth2tqY2PSBvd6cBm0Ug-125" value="Instrument " style="whiteSpace=wrap;align=center;fillColor=#cce5ff;strokeColor=#36393d;labelBackgroundColor=none;fontSize=18;fontStyle=0" parent="VqWSWO_N2-ZdH-xex5rD-38" vertex="1">
          <mxGeometry x="75" y="80" width="120" height="40" as="geometry" />
        </mxCell>
        <mxCell id="Eth2tqY2PSBvd6cBm0Ug-126" value="name " style="ellipse;whiteSpace=wrap;align=center;fontStyle=4;fontSize=16;" parent="VqWSWO_N2-ZdH-xex5rD-38" vertex="1">
          <mxGeometry width="100" height="40" as="geometry" />
        </mxCell>
        <mxCell id="Eth2tqY2PSBvd6cBm0Ug-127" value="musical key" style="ellipse;whiteSpace=wrap;align=center;fontSize=16;fontStyle=0" parent="VqWSWO_N2-ZdH-xex5rD-38" vertex="1">
          <mxGeometry x="165" width="130" height="40" as="geometry" />
        </mxCell>
        <mxCell id="Eth2tqY2PSBvd6cBm0Ug-128" value="" style="endArrow=none;rounded=0;fontSize=16;fontStyle=0" parent="VqWSWO_N2-ZdH-xex5rD-38" source="Eth2tqY2PSBvd6cBm0Ug-125" target="Eth2tqY2PSBvd6cBm0Ug-126" edge="1">
          <mxGeometry relative="1" as="geometry">
            <mxPoint x="-225" y="-10" as="sourcePoint" />
            <mxPoint x="-65" y="-10" as="targetPoint" />
          </mxGeometry>
        </mxCell>
        <mxCell id="Eth2tqY2PSBvd6cBm0Ug-129" value="" style="endArrow=none;rounded=0;fontSize=16;fontStyle=0" parent="VqWSWO_N2-ZdH-xex5rD-38" source="Eth2tqY2PSBvd6cBm0Ug-127" target="Eth2tqY2PSBvd6cBm0Ug-125" edge="1">
          <mxGeometry relative="1" as="geometry">
            <mxPoint x="-225" y="-10" as="sourcePoint" />
            <mxPoint x="-65" y="-10" as="targetPoint" />
          </mxGeometry>
        </mxCell>
        <mxCell id="VqWSWO_N2-ZdH-xex5rD-39" value="" style="group;fontSize=16;fontStyle=0" parent="1" vertex="1" connectable="0">
          <mxGeometry x="760" y="1410" width="290" height="140" as="geometry" />
        </mxCell>
        <mxCell id="Eth2tqY2PSBvd6cBm0Ug-131" value="Song" style="whiteSpace=wrap;align=center;fillColor=#cce5ff;strokeColor=#36393d;labelBackgroundColor=none;fontSize=18;fontStyle=0" parent="VqWSWO_N2-ZdH-xex5rD-39" vertex="1">
          <mxGeometry x="90" width="100" height="40" as="geometry" />
        </mxCell>
        <mxCell id="Eth2tqY2PSBvd6cBm0Ug-132" value="title " style="ellipse;whiteSpace=wrap;align=center;fontStyle=4;fontSize=16;" parent="VqWSWO_N2-ZdH-xex5rD-39" vertex="1">
          <mxGeometry x="190" y="100" width="100" height="40" as="geometry" />
        </mxCell>
        <mxCell id="Eth2tqY2PSBvd6cBm0Ug-133" value="author" style="ellipse;whiteSpace=wrap;align=center;fontSize=16;fontStyle=0" parent="VqWSWO_N2-ZdH-xex5rD-39" vertex="1">
          <mxGeometry y="100" width="100" height="40" as="geometry" />
        </mxCell>
        <mxCell id="Eth2tqY2PSBvd6cBm0Ug-134" value="" style="endArrow=none;rounded=0;fontSize=16;fontStyle=0" parent="VqWSWO_N2-ZdH-xex5rD-39" source="Eth2tqY2PSBvd6cBm0Ug-133" target="Eth2tqY2PSBvd6cBm0Ug-131" edge="1">
          <mxGeometry relative="1" as="geometry">
            <mxPoint x="-230" y="-130" as="sourcePoint" />
            <mxPoint x="-70" y="-130" as="targetPoint" />
          </mxGeometry>
        </mxCell>
        <mxCell id="Eth2tqY2PSBvd6cBm0Ug-135" value="" style="endArrow=none;rounded=0;fontSize=16;fontStyle=0" parent="VqWSWO_N2-ZdH-xex5rD-39" source="Eth2tqY2PSBvd6cBm0Ug-132" target="Eth2tqY2PSBvd6cBm0Ug-131" edge="1">
          <mxGeometry relative="1" as="geometry">
            <mxPoint x="-230" y="-130" as="sourcePoint" />
            <mxPoint x="-70" y="-130" as="targetPoint" />
          </mxGeometry>
        </mxCell>
        <mxCell id="VqWSWO_N2-ZdH-xex5rD-41" value="" style="endArrow=none;rounded=0;fontSize=16;fontStyle=0" parent="1" source="VqWSWO_N2-ZdH-xex5rD-7" target="VqWSWO_N2-ZdH-xex5rD-40" edge="1">
          <mxGeometry relative="1" as="geometry">
            <mxPoint x="480" y="1980" as="sourcePoint" />
            <mxPoint x="640" y="1980" as="targetPoint" />
          </mxGeometry>
        </mxCell>
        <mxCell id="VqWSWO_N2-ZdH-xex5rD-42" value="" style="endArrow=none;rounded=0;fontSize=16;fontStyle=0;shape=link;" parent="1" source="VqWSWO_N2-ZdH-xex5rD-1" target="VqWSWO_N2-ZdH-xex5rD-40" edge="1">
          <mxGeometry relative="1" as="geometry">
            <mxPoint x="480" y="1980" as="sourcePoint" />
            <mxPoint x="640" y="1980" as="targetPoint" />
          </mxGeometry>
        </mxCell>
        <mxCell id="VqWSWO_N2-ZdH-xex5rD-45" value="" style="group;fontSize=16;fontStyle=0" parent="1" vertex="1" connectable="0">
          <mxGeometry x="491" y="1900" width="122.5" height="72" as="geometry" />
        </mxCell>
        <mxCell id="VqWSWO_N2-ZdH-xex5rD-40" value="manage " style="shape=rhombus;perimeter=rhombusPerimeter;whiteSpace=wrap;align=center;fillColor=#f9f7ed;strokeColor=#36393d;fontSize=16;fontStyle=0" parent="VqWSWO_N2-ZdH-xex5rD-45" vertex="1">
          <mxGeometry x="2.5" y="12" width="120" height="60" as="geometry" />
        </mxCell>
        <mxCell id="VqWSWO_N2-ZdH-xex5rD-43" value="1" style="text;align=center;verticalAlign=middle;resizable=0;points=[];autosize=1;strokeColor=none;fillColor=none;fontSize=16;fontStyle=0" parent="VqWSWO_N2-ZdH-xex5rD-45" vertex="1">
          <mxGeometry x="90" width="30" height="30" as="geometry" />
        </mxCell>
        <mxCell id="VqWSWO_N2-ZdH-xex5rD-44" value="1" style="text;align=center;verticalAlign=middle;resizable=0;points=[];autosize=1;strokeColor=none;fillColor=none;fontSize=16;fontStyle=0" parent="VqWSWO_N2-ZdH-xex5rD-45" vertex="1">
          <mxGeometry width="30" height="30" as="geometry" />
        </mxCell>
        <mxCell id="VqWSWO_N2-ZdH-xex5rD-47" value="" style="endArrow=none;rounded=0;shape=link;fontSize=16;fontStyle=0" parent="1" source="VqWSWO_N2-ZdH-xex5rD-46" target="VqWSWO_N2-ZdH-xex5rD-12" edge="1">
          <mxGeometry relative="1" as="geometry">
            <mxPoint x="350" y="1985" as="sourcePoint" />
            <mxPoint x="510" y="1985" as="targetPoint" />
          </mxGeometry>
        </mxCell>
        <mxCell id="VqWSWO_N2-ZdH-xex5rD-48" value="" style="endArrow=none;rounded=0;fontSize=16;fontStyle=0" parent="1" source="VqWSWO_N2-ZdH-xex5rD-1" target="VqWSWO_N2-ZdH-xex5rD-46" edge="1">
          <mxGeometry relative="1" as="geometry">
            <mxPoint x="350" y="2090" as="sourcePoint" />
            <mxPoint x="510" y="2090" as="targetPoint" />
          </mxGeometry>
        </mxCell>
        <mxCell id="VqWSWO_N2-ZdH-xex5rD-52" value="" style="endArrow=none;rounded=0;fontSize=16;fontStyle=0" parent="1" source="VqWSWO_N2-ZdH-xex5rD-51" target="VqWSWO_N2-ZdH-xex5rD-12" edge="1">
          <mxGeometry relative="1" as="geometry">
            <mxPoint x="420" y="2055" as="sourcePoint" />
            <mxPoint x="580" y="2055" as="targetPoint" />
          </mxGeometry>
        </mxCell>
        <mxCell id="VqWSWO_N2-ZdH-xex5rD-53" value="" style="endArrow=none;rounded=0;shape=link;fontSize=16;fontStyle=0" parent="1" source="VqWSWO_N2-ZdH-xex5rD-27" target="VqWSWO_N2-ZdH-xex5rD-51" edge="1">
          <mxGeometry relative="1" as="geometry">
            <mxPoint x="420" y="2055" as="sourcePoint" />
            <mxPoint x="580" y="2055" as="targetPoint" />
          </mxGeometry>
        </mxCell>
        <mxCell id="VqWSWO_N2-ZdH-xex5rD-60" value="" style="group;fontSize=16;fontStyle=0" parent="1" vertex="1" connectable="0">
          <mxGeometry x="465" y="2113" width="180" height="162" as="geometry" />
        </mxCell>
        <mxCell id="VqWSWO_N2-ZdH-xex5rD-57" value=" percent owned " style="ellipse;whiteSpace=wrap;align=center;fillColor=#eeeeee;strokeColor=#36393d;fontSize=16;fontStyle=0" parent="VqWSWO_N2-ZdH-xex5rD-60" vertex="1">
          <mxGeometry x="22.5" y="122" width="140" height="40" as="geometry" />
        </mxCell>
        <mxCell id="VqWSWO_N2-ZdH-xex5rD-58" value="" style="endArrow=none;rounded=0;fontSize=16;fontStyle=0" parent="VqWSWO_N2-ZdH-xex5rD-60" source="VqWSWO_N2-ZdH-xex5rD-57" target="VqWSWO_N2-ZdH-xex5rD-51" edge="1">
          <mxGeometry relative="1" as="geometry">
            <mxPoint x="-45" y="-58" as="sourcePoint" />
            <mxPoint x="115" y="-58" as="targetPoint" />
          </mxGeometry>
        </mxCell>
        <mxCell id="VqWSWO_N2-ZdH-xex5rD-59" value="" style="group;fontSize=16;fontStyle=0" parent="VqWSWO_N2-ZdH-xex5rD-60" vertex="1" connectable="0">
          <mxGeometry width="175" height="62" as="geometry" />
        </mxCell>
        <mxCell id="VqWSWO_N2-ZdH-xex5rD-51" value="Have" style="shape=rhombus;perimeter=rhombusPerimeter;whiteSpace=wrap;align=center;fillColor=#f9f7ed;strokeColor=#36393d;fontSize=16;fontStyle=0" parent="VqWSWO_N2-ZdH-xex5rD-59" vertex="1">
          <mxGeometry x="32.5" y="2" width="120" height="60" as="geometry" />
        </mxCell>
        <mxCell id="VqWSWO_N2-ZdH-xex5rD-54" value="M" style="text;align=center;verticalAlign=middle;resizable=0;points=[];autosize=1;strokeColor=none;fillColor=none;fontSize=16;fontStyle=0" parent="VqWSWO_N2-ZdH-xex5rD-59" vertex="1">
          <mxGeometry x="-5" width="40" height="30" as="geometry" />
        </mxCell>
        <mxCell id="VqWSWO_N2-ZdH-xex5rD-55" value="M" style="text;align=center;verticalAlign=middle;resizable=0;points=[];autosize=1;strokeColor=none;fillColor=none;fontSize=16;fontStyle=0" parent="VqWSWO_N2-ZdH-xex5rD-59" vertex="1">
          <mxGeometry x="145" width="40" height="30" as="geometry" />
        </mxCell>
        <mxCell id="VqWSWO_N2-ZdH-xex5rD-61" value="Problem 4" style="rounded=1;fillColor=#ffcccc;strokeColor=#36393d;fillStyle=auto;glass=0;shadow=0;labelBorderColor=none;labelBackgroundColor=none;textShadow=0;whiteSpace=wrap;html=1;fontSize=21;fontStyle=1" parent="1" vertex="1">
          <mxGeometry x="457.5" y="2510" width="200" height="40" as="geometry" />
        </mxCell>
        <mxCell id="VqWSWO_N2-ZdH-xex5rD-62" value="Ward " style="whiteSpace=wrap;align=center;fillColor=#cce5ff;strokeColor=#36393d;fontSize=18;fontStyle=0" parent="1" vertex="1">
          <mxGeometry x="150" y="2650" width="100" height="40" as="geometry" />
        </mxCell>
        <mxCell id="VqWSWO_N2-ZdH-xex5rD-63" value="ward_id" style="ellipse;whiteSpace=wrap;align=center;fontStyle=4;fontSize=16;" parent="1" vertex="1">
          <mxGeometry x="226.5" y="2590" width="100" height="40" as="geometry" />
        </mxCell>
        <mxCell id="VqWSWO_N2-ZdH-xex5rD-64" value="Name" style="ellipse;whiteSpace=wrap;align=center;fontSize=16;fontStyle=0" parent="1" vertex="1">
          <mxGeometry x="72" y="2590" width="100" height="40" as="geometry" />
        </mxCell>
        <mxCell id="VqWSWO_N2-ZdH-xex5rD-65" value="" style="endArrow=none;rounded=0;fontSize=16;fontStyle=0" parent="1" source="VqWSWO_N2-ZdH-xex5rD-62" target="VqWSWO_N2-ZdH-xex5rD-63" edge="1">
          <mxGeometry relative="1" as="geometry">
            <mxPoint x="335" y="2550" as="sourcePoint" />
            <mxPoint x="495" y="2550" as="targetPoint" />
          </mxGeometry>
        </mxCell>
        <mxCell id="VqWSWO_N2-ZdH-xex5rD-66" value="" style="endArrow=none;rounded=0;fontSize=16;fontStyle=0" parent="1" source="VqWSWO_N2-ZdH-xex5rD-64" target="VqWSWO_N2-ZdH-xex5rD-62" edge="1">
          <mxGeometry relative="1" as="geometry">
            <mxPoint x="335" y="2550" as="sourcePoint" />
            <mxPoint x="495" y="2550" as="targetPoint" />
          </mxGeometry>
        </mxCell>
        <mxCell id="VqWSWO_N2-ZdH-xex5rD-67" value="Patient" style="whiteSpace=wrap;align=center;fillColor=#cce5ff;strokeColor=#36393d;fontSize=18;fontStyle=0" parent="1" vertex="1">
          <mxGeometry x="890" y="2650" width="100" height="40" as="geometry" />
        </mxCell>
        <mxCell id="VqWSWO_N2-ZdH-xex5rD-68" value="Patient_id" style="ellipse;whiteSpace=wrap;align=center;fontStyle=4;fontSize=16;" parent="1" vertex="1">
          <mxGeometry x="740" y="2590" width="107.5" height="40" as="geometry" />
        </mxCell>
        <mxCell id="VqWSWO_N2-ZdH-xex5rD-69" value="name" style="ellipse;whiteSpace=wrap;align=center;fontSize=16;fontStyle=0" parent="1" vertex="1">
          <mxGeometry x="890" y="2570" width="100" height="40" as="geometry" />
        </mxCell>
        <mxCell id="VqWSWO_N2-ZdH-xex5rD-70" value="Date_Of_Birth" style="ellipse;whiteSpace=wrap;align=center;fontSize=16;fontStyle=0" parent="1" vertex="1">
          <mxGeometry x="1007.5" y="2590" width="152.5" height="40" as="geometry" />
        </mxCell>
        <mxCell id="VqWSWO_N2-ZdH-xex5rD-71" value="" style="endArrow=none;rounded=0;fontSize=16;fontStyle=0" parent="1" source="VqWSWO_N2-ZdH-xex5rD-68" target="VqWSWO_N2-ZdH-xex5rD-67" edge="1">
          <mxGeometry relative="1" as="geometry">
            <mxPoint x="510" y="2600" as="sourcePoint" />
            <mxPoint x="670" y="2600" as="targetPoint" />
          </mxGeometry>
        </mxCell>
        <mxCell id="VqWSWO_N2-ZdH-xex5rD-72" value="" style="endArrow=none;rounded=0;fontSize=16;fontStyle=0" parent="1" source="VqWSWO_N2-ZdH-xex5rD-69" target="VqWSWO_N2-ZdH-xex5rD-67" edge="1">
          <mxGeometry relative="1" as="geometry">
            <mxPoint x="510" y="2600" as="sourcePoint" />
            <mxPoint x="670" y="2600" as="targetPoint" />
          </mxGeometry>
        </mxCell>
        <mxCell id="VqWSWO_N2-ZdH-xex5rD-73" value="" style="endArrow=none;rounded=0;fontSize=16;fontStyle=0" parent="1" source="VqWSWO_N2-ZdH-xex5rD-70" target="VqWSWO_N2-ZdH-xex5rD-67" edge="1">
          <mxGeometry relative="1" as="geometry">
            <mxPoint x="510" y="2600" as="sourcePoint" />
            <mxPoint x="670" y="2600" as="targetPoint" />
          </mxGeometry>
        </mxCell>
        <mxCell id="VqWSWO_N2-ZdH-xex5rD-75" value="" style="endArrow=none;rounded=0;fontSize=16;fontStyle=0" parent="1" source="VqWSWO_N2-ZdH-xex5rD-62" target="VqWSWO_N2-ZdH-xex5rD-74" edge="1">
          <mxGeometry relative="1" as="geometry">
            <mxPoint x="510" y="2600" as="sourcePoint" />
            <mxPoint x="670" y="2600" as="targetPoint" />
          </mxGeometry>
        </mxCell>
        <mxCell id="VqWSWO_N2-ZdH-xex5rD-76" value="" style="endArrow=none;rounded=0;shape=link;fontSize=16;fontStyle=0" parent="1" source="VqWSWO_N2-ZdH-xex5rD-67" target="VqWSWO_N2-ZdH-xex5rD-74" edge="1">
          <mxGeometry relative="1" as="geometry">
            <mxPoint x="510" y="2600" as="sourcePoint" />
            <mxPoint x="670" y="2600" as="targetPoint" />
          </mxGeometry>
        </mxCell>
        <mxCell id="VqWSWO_N2-ZdH-xex5rD-79" value="Consultant " style="whiteSpace=wrap;align=center;fillColor=#cce5ff;strokeColor=#36393d;fontSize=18;fontStyle=0" parent="1" vertex="1">
          <mxGeometry x="890" y="2842.5" width="100" height="40" as="geometry" />
        </mxCell>
        <mxCell id="VqWSWO_N2-ZdH-xex5rD-80" value="Consultant_id" style="ellipse;whiteSpace=wrap;align=center;fontStyle=4;fontSize=16;" parent="1" vertex="1">
          <mxGeometry x="942.5" y="2940" width="137.5" height="40" as="geometry" />
        </mxCell>
        <mxCell id="VqWSWO_N2-ZdH-xex5rD-81" value="Name" style="ellipse;whiteSpace=wrap;align=center;fontSize=16;fontStyle=0" parent="1" vertex="1">
          <mxGeometry x="785" y="2940" width="140" height="40" as="geometry" />
        </mxCell>
        <mxCell id="VqWSWO_N2-ZdH-xex5rD-82" value="" style="endArrow=none;rounded=0;fontSize=16;fontStyle=0" parent="1" source="VqWSWO_N2-ZdH-xex5rD-79" target="VqWSWO_N2-ZdH-xex5rD-81" edge="1">
          <mxGeometry relative="1" as="geometry">
            <mxPoint x="480" y="2850" as="sourcePoint" />
            <mxPoint x="640" y="2850" as="targetPoint" />
          </mxGeometry>
        </mxCell>
        <mxCell id="VqWSWO_N2-ZdH-xex5rD-83" value="" style="endArrow=none;rounded=0;fontSize=16;fontStyle=0" parent="1" source="VqWSWO_N2-ZdH-xex5rD-79" target="VqWSWO_N2-ZdH-xex5rD-80" edge="1">
          <mxGeometry relative="1" as="geometry">
            <mxPoint x="480" y="2850" as="sourcePoint" />
            <mxPoint x="640" y="2850" as="targetPoint" />
          </mxGeometry>
        </mxCell>
        <mxCell id="VqWSWO_N2-ZdH-xex5rD-86" value="" style="endArrow=none;rounded=0;fontSize=16;fontStyle=0" parent="1" source="VqWSWO_N2-ZdH-xex5rD-84" target="VqWSWO_N2-ZdH-xex5rD-67" edge="1">
          <mxGeometry relative="1" as="geometry">
            <mxPoint x="480" y="2850" as="sourcePoint" />
            <mxPoint x="640" y="2850" as="targetPoint" />
          </mxGeometry>
        </mxCell>
        <mxCell id="VqWSWO_N2-ZdH-xex5rD-87" value="" style="endArrow=none;rounded=0;fontSize=16;fontStyle=0" parent="1" source="VqWSWO_N2-ZdH-xex5rD-79" target="VqWSWO_N2-ZdH-xex5rD-84" edge="1">
          <mxGeometry relative="1" as="geometry">
            <mxPoint x="480" y="2850" as="sourcePoint" />
            <mxPoint x="640" y="2850" as="targetPoint" />
          </mxGeometry>
        </mxCell>
        <mxCell id="VqWSWO_N2-ZdH-xex5rD-89" value="" style="endArrow=none;rounded=0;shape=link;fontSize=16;fontStyle=0" parent="1" source="VqWSWO_N2-ZdH-xex5rD-85" target="VqWSWO_N2-ZdH-xex5rD-67" edge="1">
          <mxGeometry relative="1" as="geometry">
            <mxPoint x="480" y="2850" as="sourcePoint" />
            <mxPoint x="640" y="2850" as="targetPoint" />
          </mxGeometry>
        </mxCell>
        <mxCell id="VqWSWO_N2-ZdH-xex5rD-90" value="" style="endArrow=none;rounded=0;fontSize=16;fontStyle=0" parent="1" source="VqWSWO_N2-ZdH-xex5rD-85" target="VqWSWO_N2-ZdH-xex5rD-79" edge="1">
          <mxGeometry relative="1" as="geometry">
            <mxPoint x="480" y="2850" as="sourcePoint" />
            <mxPoint x="640" y="2850" as="targetPoint" />
          </mxGeometry>
        </mxCell>
        <mxCell id="VqWSWO_N2-ZdH-xex5rD-93" value="" style="group;fontSize=16;fontStyle=0" parent="1" vertex="1" connectable="0">
          <mxGeometry x="1007.25" y="2718" width="120" height="117" as="geometry" />
        </mxCell>
        <mxCell id="VqWSWO_N2-ZdH-xex5rD-85" value="assigned " style="shape=rhombus;perimeter=rhombusPerimeter;whiteSpace=wrap;align=center;fillColor=#f9f7ed;strokeColor=#36393d;fontSize=16;fontStyle=0" parent="VqWSWO_N2-ZdH-xex5rD-93" vertex="1">
          <mxGeometry y="28.5" width="120" height="60" as="geometry" />
        </mxCell>
        <mxCell id="VqWSWO_N2-ZdH-xex5rD-91" value="M" style="text;align=center;verticalAlign=middle;resizable=0;points=[];autosize=1;strokeColor=none;fillColor=none;fontSize=16;fontStyle=0" parent="VqWSWO_N2-ZdH-xex5rD-93" vertex="1">
          <mxGeometry x="32.5" width="40" height="30" as="geometry" />
        </mxCell>
        <mxCell id="VqWSWO_N2-ZdH-xex5rD-92" value="M" style="text;align=center;verticalAlign=middle;resizable=0;points=[];autosize=1;strokeColor=none;fillColor=none;fontSize=16;fontStyle=0" parent="VqWSWO_N2-ZdH-xex5rD-93" vertex="1">
          <mxGeometry x="27.5" y="87" width="40" height="30" as="geometry" />
        </mxCell>
        <mxCell id="VqWSWO_N2-ZdH-xex5rD-94" value="" style="group;fontSize=16;fontStyle=0" parent="1" vertex="1" connectable="0">
          <mxGeometry x="483" y="2640" width="177" height="60" as="geometry" />
        </mxCell>
        <mxCell id="VqWSWO_N2-ZdH-xex5rD-74" value="host " style="shape=rhombus;perimeter=rhombusPerimeter;whiteSpace=wrap;align=center;fillColor=#f9f7ed;strokeColor=#36393d;fontSize=16;fontStyle=0" parent="VqWSWO_N2-ZdH-xex5rD-94" vertex="1">
          <mxGeometry x="27" width="120" height="60" as="geometry" />
        </mxCell>
        <mxCell id="VqWSWO_N2-ZdH-xex5rD-77" value="M" style="text;align=center;verticalAlign=middle;resizable=0;points=[];autosize=1;strokeColor=none;fillColor=none;fontSize=16;fontStyle=0" parent="VqWSWO_N2-ZdH-xex5rD-94" vertex="1">
          <mxGeometry x="137" width="40" height="30" as="geometry" />
        </mxCell>
        <mxCell id="VqWSWO_N2-ZdH-xex5rD-78" value="1" style="text;align=center;verticalAlign=middle;resizable=0;points=[];autosize=1;strokeColor=none;fillColor=none;fontSize=16;fontStyle=0" parent="VqWSWO_N2-ZdH-xex5rD-94" vertex="1">
          <mxGeometry width="30" height="30" as="geometry" />
        </mxCell>
        <mxCell id="VqWSWO_N2-ZdH-xex5rD-97" value="" style="group;fontSize=16;fontStyle=0" parent="1" vertex="1" connectable="0">
          <mxGeometry x="752.75" y="2714" width="120" height="125" as="geometry" />
        </mxCell>
        <mxCell id="VqWSWO_N2-ZdH-xex5rD-84" value="examine " style="shape=rhombus;perimeter=rhombusPerimeter;whiteSpace=wrap;align=center;fillColor=#f9f7ed;strokeColor=#36393d;fontSize=16;fontStyle=0" parent="VqWSWO_N2-ZdH-xex5rD-97" vertex="1">
          <mxGeometry y="32.5" width="120" height="60" as="geometry" />
        </mxCell>
        <mxCell id="VqWSWO_N2-ZdH-xex5rD-95" value="M" style="text;align=center;verticalAlign=middle;resizable=0;points=[];autosize=1;strokeColor=none;fillColor=none;fontSize=16;fontStyle=0" parent="VqWSWO_N2-ZdH-xex5rD-97" vertex="1">
          <mxGeometry x="45" width="40" height="30" as="geometry" />
        </mxCell>
        <mxCell id="VqWSWO_N2-ZdH-xex5rD-96" value="M" style="text;align=center;verticalAlign=middle;resizable=0;points=[];autosize=1;strokeColor=none;fillColor=none;fontSize=16;fontStyle=0" parent="VqWSWO_N2-ZdH-xex5rD-97" vertex="1">
          <mxGeometry x="52.5" y="95" width="40" height="30" as="geometry" />
        </mxCell>
        <mxCell id="VqWSWO_N2-ZdH-xex5rD-98" value="Nurse " style="whiteSpace=wrap;align=center;fillColor=#cce5ff;strokeColor=#36393d;fontSize=18;fontStyle=0" parent="1" vertex="1">
          <mxGeometry x="166" y="2930" width="100" height="40" as="geometry" />
        </mxCell>
        <mxCell id="VqWSWO_N2-ZdH-xex5rD-99" value="number " style="ellipse;whiteSpace=wrap;align=center;fontStyle=4;fontSize=16;" parent="1" vertex="1">
          <mxGeometry x="166" y="3030" width="100" height="40" as="geometry" />
        </mxCell>
        <mxCell id="VqWSWO_N2-ZdH-xex5rD-100" value="name" style="ellipse;whiteSpace=wrap;align=center;fontSize=16;fontStyle=0" parent="1" vertex="1">
          <mxGeometry x="23" y="3030" width="100" height="40" as="geometry" />
        </mxCell>
        <mxCell id="VqWSWO_N2-ZdH-xex5rD-101" value="address" style="ellipse;whiteSpace=wrap;align=center;fontSize=16;fontStyle=0" parent="1" vertex="1">
          <mxGeometry x="20" y="2930" width="100" height="40" as="geometry" />
        </mxCell>
        <mxCell id="VqWSWO_N2-ZdH-xex5rD-102" value="drug " style="whiteSpace=wrap;align=center;fillColor=#cce5ff;strokeColor=#36393d;fontSize=18;fontStyle=0" parent="1" vertex="1">
          <mxGeometry x="397.5" y="2930" width="100" height="40" as="geometry" />
        </mxCell>
        <mxCell id="VqWSWO_N2-ZdH-xex5rD-103" value="Rec. dosage" style="ellipse;whiteSpace=wrap;align=center;fontSize=16;fontStyle=0" parent="1" vertex="1">
          <mxGeometry x="294" y="3030" width="110" height="40" as="geometry" />
        </mxCell>
        <mxCell id="VqWSWO_N2-ZdH-xex5rD-104" value="brand " style="ellipse;shape=doubleEllipse;margin=3;whiteSpace=wrap;align=center;fontSize=16;fontStyle=0" parent="1" vertex="1">
          <mxGeometry x="422.5" y="3030" width="100" height="40" as="geometry" />
        </mxCell>
        <mxCell id="VqWSWO_N2-ZdH-xex5rD-106" value="code number" style="ellipse;whiteSpace=wrap;align=center;fontStyle=4;fontSize=16;" parent="1" vertex="1">
          <mxGeometry x="550" y="3030" width="135" height="40" as="geometry" />
        </mxCell>
        <mxCell id="VqWSWO_N2-ZdH-xex5rD-107" value="" style="endArrow=none;rounded=0;fontSize=16;fontStyle=0" parent="1" source="VqWSWO_N2-ZdH-xex5rD-98" target="VqWSWO_N2-ZdH-xex5rD-99" edge="1">
          <mxGeometry relative="1" as="geometry">
            <mxPoint x="209" y="2895" as="sourcePoint" />
            <mxPoint x="369" y="2895" as="targetPoint" />
          </mxGeometry>
        </mxCell>
        <mxCell id="VqWSWO_N2-ZdH-xex5rD-108" value="" style="endArrow=none;rounded=0;fontSize=16;fontStyle=0" parent="1" source="VqWSWO_N2-ZdH-xex5rD-98" target="VqWSWO_N2-ZdH-xex5rD-100" edge="1">
          <mxGeometry relative="1" as="geometry">
            <mxPoint x="209" y="2895" as="sourcePoint" />
            <mxPoint x="369" y="2895" as="targetPoint" />
          </mxGeometry>
        </mxCell>
        <mxCell id="VqWSWO_N2-ZdH-xex5rD-109" value="" style="endArrow=none;rounded=0;fontSize=16;fontStyle=0" parent="1" source="VqWSWO_N2-ZdH-xex5rD-98" target="VqWSWO_N2-ZdH-xex5rD-101" edge="1">
          <mxGeometry relative="1" as="geometry">
            <mxPoint x="209" y="2895" as="sourcePoint" />
            <mxPoint x="369" y="2895" as="targetPoint" />
          </mxGeometry>
        </mxCell>
        <mxCell id="VqWSWO_N2-ZdH-xex5rD-110" value="" style="endArrow=none;rounded=0;fontSize=16;fontStyle=0" parent="1" source="VqWSWO_N2-ZdH-xex5rD-104" target="VqWSWO_N2-ZdH-xex5rD-102" edge="1">
          <mxGeometry relative="1" as="geometry">
            <mxPoint x="905" y="2870" as="sourcePoint" />
            <mxPoint x="1065" y="2870" as="targetPoint" />
          </mxGeometry>
        </mxCell>
        <mxCell id="VqWSWO_N2-ZdH-xex5rD-111" value="" style="endArrow=none;rounded=0;fontSize=16;fontStyle=0" parent="1" source="VqWSWO_N2-ZdH-xex5rD-103" target="VqWSWO_N2-ZdH-xex5rD-102" edge="1">
          <mxGeometry relative="1" as="geometry">
            <mxPoint x="905" y="2870" as="sourcePoint" />
            <mxPoint x="1065" y="2870" as="targetPoint" />
          </mxGeometry>
        </mxCell>
        <mxCell id="VqWSWO_N2-ZdH-xex5rD-112" value="" style="endArrow=none;rounded=0;fontSize=16;fontStyle=0" parent="1" source="VqWSWO_N2-ZdH-xex5rD-106" target="VqWSWO_N2-ZdH-xex5rD-102" edge="1">
          <mxGeometry relative="1" as="geometry">
            <mxPoint x="905" y="2870" as="sourcePoint" />
            <mxPoint x="1065" y="2870" as="targetPoint" />
          </mxGeometry>
        </mxCell>
        <mxCell id="VqWSWO_N2-ZdH-xex5rD-114" value="Problem 5" style="rounded=1;fillColor=#ffcccc;strokeColor=#36393d;fillStyle=auto;glass=0;shadow=0;labelBorderColor=none;labelBackgroundColor=none;textShadow=0;whiteSpace=wrap;html=1;fontSize=21;fontStyle=1" parent="1" vertex="1">
          <mxGeometry x="485" y="3340" width="200" height="40" as="geometry" />
        </mxCell>
        <mxCell id="VqWSWO_N2-ZdH-xex5rD-115" value="Airline" style="whiteSpace=wrap;align=center;fillColor=#cce5ff;strokeColor=#36393d;fontSize=18;fontStyle=0" parent="1" vertex="1">
          <mxGeometry x="170" y="3450" width="100" height="40" as="geometry" />
        </mxCell>
        <mxCell id="VqWSWO_N2-ZdH-xex5rD-117" value="address" style="ellipse;whiteSpace=wrap;align=center;fontSize=16;fontStyle=0" parent="1" vertex="1">
          <mxGeometry x="171" y="3370" width="100" height="40" as="geometry" />
        </mxCell>
        <mxCell id="VqWSWO_N2-ZdH-xex5rD-118" value="name " style="ellipse;whiteSpace=wrap;align=center;fontSize=16;fontStyle=0" parent="1" vertex="1">
          <mxGeometry x="13" y="3445" width="100" height="40" as="geometry" />
        </mxCell>
        <mxCell id="VqWSWO_N2-ZdH-xex5rD-119" value="telephone " style="ellipse;shape=doubleEllipse;margin=3;whiteSpace=wrap;align=center;fontSize=16;fontStyle=0" parent="1" vertex="1">
          <mxGeometry x="13" y="3370" width="117" height="40" as="geometry" />
        </mxCell>
        <mxCell id="VqWSWO_N2-ZdH-xex5rD-120" value="id" style="ellipse;whiteSpace=wrap;align=center;fontStyle=4;fontSize=16;" parent="1" vertex="1">
          <mxGeometry x="13" y="3520" width="100" height="40" as="geometry" />
        </mxCell>
        <mxCell id="VqWSWO_N2-ZdH-xex5rD-122" value="" style="endArrow=none;rounded=0;fontSize=16;fontStyle=0" parent="1" source="VqWSWO_N2-ZdH-xex5rD-115" target="VqWSWO_N2-ZdH-xex5rD-240" edge="1">
          <mxGeometry relative="1" as="geometry">
            <mxPoint x="195" y="3560" as="sourcePoint" />
            <mxPoint x="328.04503691313084" y="3407.8543860960954" as="targetPoint" />
          </mxGeometry>
        </mxCell>
        <mxCell id="VqWSWO_N2-ZdH-xex5rD-123" value="" style="endArrow=none;rounded=0;fontSize=16;fontStyle=0" parent="1" source="VqWSWO_N2-ZdH-xex5rD-115" target="VqWSWO_N2-ZdH-xex5rD-117" edge="1">
          <mxGeometry relative="1" as="geometry">
            <mxPoint x="261.5" y="3500" as="sourcePoint" />
            <mxPoint x="421.5" y="3500" as="targetPoint" />
          </mxGeometry>
        </mxCell>
        <mxCell id="VqWSWO_N2-ZdH-xex5rD-124" value="" style="endArrow=none;rounded=0;fontSize=16;fontStyle=0" parent="1" source="VqWSWO_N2-ZdH-xex5rD-115" target="VqWSWO_N2-ZdH-xex5rD-118" edge="1">
          <mxGeometry relative="1" as="geometry">
            <mxPoint x="220" y="3410" as="sourcePoint" />
            <mxPoint x="380" y="3410" as="targetPoint" />
          </mxGeometry>
        </mxCell>
        <mxCell id="VqWSWO_N2-ZdH-xex5rD-125" value="" style="endArrow=none;rounded=0;fontSize=16;fontStyle=0" parent="1" source="VqWSWO_N2-ZdH-xex5rD-115" target="VqWSWO_N2-ZdH-xex5rD-120" edge="1">
          <mxGeometry relative="1" as="geometry">
            <mxPoint x="220" y="3410" as="sourcePoint" />
            <mxPoint x="380" y="3410" as="targetPoint" />
          </mxGeometry>
        </mxCell>
        <mxCell id="VqWSWO_N2-ZdH-xex5rD-126" value="" style="endArrow=none;rounded=0;fontSize=16;fontStyle=0" parent="1" source="VqWSWO_N2-ZdH-xex5rD-115" target="VqWSWO_N2-ZdH-xex5rD-119" edge="1">
          <mxGeometry relative="1" as="geometry">
            <mxPoint x="220" y="3410" as="sourcePoint" />
            <mxPoint x="380" y="3410" as="targetPoint" />
          </mxGeometry>
        </mxCell>
        <mxCell id="VqWSWO_N2-ZdH-xex5rD-127" value="Employee" style="whiteSpace=wrap;align=center;fillColor=#cce5ff;strokeColor=#36393d;fontSize=18;fontStyle=0" parent="1" vertex="1">
          <mxGeometry x="932.5" y="3523" width="100" height="40" as="geometry" />
        </mxCell>
        <mxCell id="VqWSWO_N2-ZdH-xex5rD-128" value="ID_E" style="ellipse;whiteSpace=wrap;align=center;fontStyle=4;fontSize=16;" parent="1" vertex="1">
          <mxGeometry x="1052.5" y="3490" width="100" height="40" as="geometry" />
        </mxCell>
        <mxCell id="VqWSWO_N2-ZdH-xex5rD-129" value="name" style="ellipse;whiteSpace=wrap;align=center;fontSize=16;fontStyle=0" parent="1" vertex="1">
          <mxGeometry x="930" y="3680" width="100" height="40" as="geometry" />
        </mxCell>
        <mxCell id="VqWSWO_N2-ZdH-xex5rD-130" value="birthday " style="ellipse;whiteSpace=wrap;align=center;fontSize=16;fontStyle=0" parent="1" vertex="1">
          <mxGeometry x="932.5" y="3415" width="100" height="40" as="geometry" />
        </mxCell>
        <mxCell id="VqWSWO_N2-ZdH-xex5rD-131" value="day" style="ellipse;whiteSpace=wrap;align=center;fontSize=16;fontStyle=0" parent="1" vertex="1">
          <mxGeometry x="820" y="3340" width="100" height="40" as="geometry" />
        </mxCell>
        <mxCell id="VqWSWO_N2-ZdH-xex5rD-132" value="month" style="ellipse;whiteSpace=wrap;align=center;fontSize=16;fontStyle=0" parent="1" vertex="1">
          <mxGeometry x="932.5" y="3340" width="100" height="40" as="geometry" />
        </mxCell>
        <mxCell id="VqWSWO_N2-ZdH-xex5rD-133" value="year" style="ellipse;whiteSpace=wrap;align=center;fontSize=16;fontStyle=0" parent="1" vertex="1">
          <mxGeometry x="1052.5" y="3340" width="100" height="40" as="geometry" />
        </mxCell>
        <mxCell id="VqWSWO_N2-ZdH-xex5rD-135" value="gender" style="ellipse;whiteSpace=wrap;align=center;fontSize=16;fontStyle=0" parent="1" vertex="1">
          <mxGeometry x="790" y="3405" width="100" height="40" as="geometry" />
        </mxCell>
        <mxCell id="VqWSWO_N2-ZdH-xex5rD-136" value="address" style="ellipse;whiteSpace=wrap;align=center;fontSize=16;fontStyle=0" parent="1" vertex="1">
          <mxGeometry x="1052.5" y="3415" width="100" height="40" as="geometry" />
        </mxCell>
        <mxCell id="VqWSWO_N2-ZdH-xex5rD-137" value="position " style="ellipse;whiteSpace=wrap;align=center;fontSize=16;fontStyle=0" parent="1" vertex="1">
          <mxGeometry x="1052.5" y="3563" width="100" height="40" as="geometry" />
        </mxCell>
        <mxCell id="VqWSWO_N2-ZdH-xex5rD-139" value="" style="endArrow=none;rounded=0;fontSize=16;fontStyle=0" parent="1" source="VqWSWO_N2-ZdH-xex5rD-154" target="VqWSWO_N2-ZdH-xex5rD-127" edge="1">
          <mxGeometry relative="1" as="geometry">
            <mxPoint x="761.75" y="3500" as="sourcePoint" />
            <mxPoint x="921.75" y="3500" as="targetPoint" />
          </mxGeometry>
        </mxCell>
        <mxCell id="VqWSWO_N2-ZdH-xex5rD-140" value="" style="endArrow=none;rounded=0;fontSize=16;fontStyle=0" parent="1" source="VqWSWO_N2-ZdH-xex5rD-127" target="VqWSWO_N2-ZdH-xex5rD-130" edge="1">
          <mxGeometry relative="1" as="geometry">
            <mxPoint x="761.75" y="3500" as="sourcePoint" />
            <mxPoint x="921.75" y="3500" as="targetPoint" />
          </mxGeometry>
        </mxCell>
        <mxCell id="VqWSWO_N2-ZdH-xex5rD-141" value="" style="endArrow=none;rounded=0;fontSize=16;fontStyle=0" parent="1" source="VqWSWO_N2-ZdH-xex5rD-127" target="VqWSWO_N2-ZdH-xex5rD-136" edge="1">
          <mxGeometry relative="1" as="geometry">
            <mxPoint x="761.75" y="3500" as="sourcePoint" />
            <mxPoint x="921.75" y="3500" as="targetPoint" />
          </mxGeometry>
        </mxCell>
        <mxCell id="VqWSWO_N2-ZdH-xex5rD-142" value="" style="endArrow=none;rounded=0;fontSize=16;fontStyle=0" parent="1" source="VqWSWO_N2-ZdH-xex5rD-127" target="VqWSWO_N2-ZdH-xex5rD-128" edge="1">
          <mxGeometry relative="1" as="geometry">
            <mxPoint x="761.75" y="3500" as="sourcePoint" />
            <mxPoint x="921.75" y="3500" as="targetPoint" />
          </mxGeometry>
        </mxCell>
        <mxCell id="VqWSWO_N2-ZdH-xex5rD-143" value="" style="endArrow=none;rounded=0;fontSize=16;fontStyle=0" parent="1" source="VqWSWO_N2-ZdH-xex5rD-127" target="VqWSWO_N2-ZdH-xex5rD-137" edge="1">
          <mxGeometry relative="1" as="geometry">
            <mxPoint x="761.75" y="3500" as="sourcePoint" />
            <mxPoint x="921.75" y="3500" as="targetPoint" />
          </mxGeometry>
        </mxCell>
        <mxCell id="VqWSWO_N2-ZdH-xex5rD-144" value="" style="endArrow=none;rounded=0;fontSize=16;fontStyle=0" parent="1" source="VqWSWO_N2-ZdH-xex5rD-135" target="VqWSWO_N2-ZdH-xex5rD-127" edge="1">
          <mxGeometry relative="1" as="geometry">
            <mxPoint x="761.75" y="3500" as="sourcePoint" />
            <mxPoint x="921.75" y="3500" as="targetPoint" />
          </mxGeometry>
        </mxCell>
        <mxCell id="VqWSWO_N2-ZdH-xex5rD-145" value="" style="endArrow=none;rounded=0;fontSize=16;fontStyle=0" parent="1" source="VqWSWO_N2-ZdH-xex5rD-129" target="VqWSWO_N2-ZdH-xex5rD-127" edge="1">
          <mxGeometry relative="1" as="geometry">
            <mxPoint x="761.75" y="3500" as="sourcePoint" />
            <mxPoint x="921.75" y="3500" as="targetPoint" />
          </mxGeometry>
        </mxCell>
        <mxCell id="VqWSWO_N2-ZdH-xex5rD-146" value="" style="endArrow=none;rounded=0;fontSize=16;fontStyle=0" parent="1" source="VqWSWO_N2-ZdH-xex5rD-131" target="VqWSWO_N2-ZdH-xex5rD-130" edge="1">
          <mxGeometry relative="1" as="geometry">
            <mxPoint x="831.75" y="3330" as="sourcePoint" />
            <mxPoint x="991.75" y="3330" as="targetPoint" />
          </mxGeometry>
        </mxCell>
        <mxCell id="VqWSWO_N2-ZdH-xex5rD-147" value="" style="endArrow=none;rounded=0;fontSize=16;fontStyle=0" parent="1" source="VqWSWO_N2-ZdH-xex5rD-130" target="VqWSWO_N2-ZdH-xex5rD-132" edge="1">
          <mxGeometry relative="1" as="geometry">
            <mxPoint x="831.75" y="3330" as="sourcePoint" />
            <mxPoint x="991.75" y="3330" as="targetPoint" />
          </mxGeometry>
        </mxCell>
        <mxCell id="VqWSWO_N2-ZdH-xex5rD-148" value="" style="endArrow=none;rounded=0;fontSize=16;fontStyle=0" parent="1" source="VqWSWO_N2-ZdH-xex5rD-130" target="VqWSWO_N2-ZdH-xex5rD-133" edge="1">
          <mxGeometry relative="1" as="geometry">
            <mxPoint x="831.75" y="3330" as="sourcePoint" />
            <mxPoint x="991.75" y="3330" as="targetPoint" />
          </mxGeometry>
        </mxCell>
        <mxCell id="VqWSWO_N2-ZdH-xex5rD-150" value="Aircraft" style="whiteSpace=wrap;align=center;fillColor=#cce5ff;strokeColor=#36393d;fontSize=18;fontStyle=0" parent="1" vertex="1">
          <mxGeometry x="170" y="3740" width="100" height="40" as="geometry" />
        </mxCell>
        <mxCell id="VqWSWO_N2-ZdH-xex5rD-151" value="ID_A" style="ellipse;whiteSpace=wrap;align=center;fontStyle=4;fontSize=16;" parent="1" vertex="1">
          <mxGeometry x="10" y="3672" width="100" height="40" as="geometry" />
        </mxCell>
        <mxCell id="VqWSWO_N2-ZdH-xex5rD-152" value="model " style="ellipse;whiteSpace=wrap;align=center;fontSize=16;fontStyle=0" parent="1" vertex="1">
          <mxGeometry x="10" y="3741" width="100" height="40" as="geometry" />
        </mxCell>
        <mxCell id="VqWSWO_N2-ZdH-xex5rD-153" value="capacity" style="ellipse;whiteSpace=wrap;align=center;fontSize=16;fontStyle=0" parent="1" vertex="1">
          <mxGeometry x="10" y="3810" width="100" height="40" as="geometry" />
        </mxCell>
        <mxCell id="VqWSWO_N2-ZdH-xex5rD-154" value="qualifications" style="ellipse;shape=doubleEllipse;margin=3;whiteSpace=wrap;align=center;fontSize=16;fontStyle=0" parent="1" vertex="1">
          <mxGeometry x="1022.5" y="3640" width="130" height="40" as="geometry" />
        </mxCell>
        <mxCell id="VqWSWO_N2-ZdH-xex5rD-155" value="" style="endArrow=none;rounded=0;fontSize=16;fontStyle=0" parent="1" source="VqWSWO_N2-ZdH-xex5rD-153" target="VqWSWO_N2-ZdH-xex5rD-150" edge="1">
          <mxGeometry relative="1" as="geometry">
            <mxPoint x="706.25" y="3770" as="sourcePoint" />
            <mxPoint x="866.25" y="3770" as="targetPoint" />
          </mxGeometry>
        </mxCell>
        <mxCell id="VqWSWO_N2-ZdH-xex5rD-156" value="" style="endArrow=none;rounded=0;fontSize=16;fontStyle=0" parent="1" source="VqWSWO_N2-ZdH-xex5rD-152" target="VqWSWO_N2-ZdH-xex5rD-150" edge="1">
          <mxGeometry relative="1" as="geometry">
            <mxPoint x="706.25" y="3770" as="sourcePoint" />
            <mxPoint x="866.25" y="3770" as="targetPoint" />
          </mxGeometry>
        </mxCell>
        <mxCell id="VqWSWO_N2-ZdH-xex5rD-157" value="" style="endArrow=none;rounded=0;fontSize=16;fontStyle=0" parent="1" source="VqWSWO_N2-ZdH-xex5rD-150" target="VqWSWO_N2-ZdH-xex5rD-151" edge="1">
          <mxGeometry relative="1" as="geometry">
            <mxPoint x="706.25" y="3770" as="sourcePoint" />
            <mxPoint x="866.25" y="3770" as="targetPoint" />
          </mxGeometry>
        </mxCell>
        <mxCell id="VqWSWO_N2-ZdH-xex5rD-158" value="Route" style="whiteSpace=wrap;align=center;fillColor=#cce5ff;strokeColor=#36393d;fontSize=18;fontStyle=0" parent="1" vertex="1">
          <mxGeometry x="937.5" y="3980" width="100" height="40" as="geometry" />
        </mxCell>
        <mxCell id="VqWSWO_N2-ZdH-xex5rD-159" value="origin" style="ellipse;whiteSpace=wrap;align=center;fontSize=16;fontStyle=0" parent="1" vertex="1">
          <mxGeometry x="1065" y="3860" width="100" height="40" as="geometry" />
        </mxCell>
        <mxCell id="VqWSWO_N2-ZdH-xex5rD-160" value="distance" style="ellipse;whiteSpace=wrap;align=center;fontSize=16;fontStyle=0" parent="1" vertex="1">
          <mxGeometry x="1065" y="3930" width="100" height="40" as="geometry" />
        </mxCell>
        <mxCell id="VqWSWO_N2-ZdH-xex5rD-161" value="classification" style="ellipse;whiteSpace=wrap;align=center;fontSize=16;fontStyle=0" parent="1" vertex="1">
          <mxGeometry x="925" y="4080" width="125" height="40" as="geometry" />
        </mxCell>
        <mxCell id="VqWSWO_N2-ZdH-xex5rD-162" value="destination" style="ellipse;whiteSpace=wrap;align=center;fontSize=16;fontStyle=0" parent="1" vertex="1">
          <mxGeometry x="1055" y="4000" width="110" height="40" as="geometry" />
        </mxCell>
        <mxCell id="VqWSWO_N2-ZdH-xex5rD-163" value="ID_R" style="ellipse;whiteSpace=wrap;align=center;fontStyle=4;fontSize=16;" parent="1" vertex="1">
          <mxGeometry x="1060" y="4080" width="100" height="40" as="geometry" />
        </mxCell>
        <mxCell id="VqWSWO_N2-ZdH-xex5rD-164" value="" style="endArrow=none;rounded=0;fontSize=16;fontStyle=0" parent="1" source="VqWSWO_N2-ZdH-xex5rD-158" target="VqWSWO_N2-ZdH-xex5rD-163" edge="1">
          <mxGeometry relative="1" as="geometry">
            <mxPoint x="510" y="3910" as="sourcePoint" />
            <mxPoint x="670" y="3910" as="targetPoint" />
          </mxGeometry>
        </mxCell>
        <mxCell id="VqWSWO_N2-ZdH-xex5rD-165" value="" style="endArrow=none;rounded=0;fontSize=16;fontStyle=0" parent="1" source="VqWSWO_N2-ZdH-xex5rD-159" target="VqWSWO_N2-ZdH-xex5rD-158" edge="1">
          <mxGeometry relative="1" as="geometry">
            <mxPoint x="510" y="3910" as="sourcePoint" />
            <mxPoint x="670" y="3910" as="targetPoint" />
          </mxGeometry>
        </mxCell>
        <mxCell id="VqWSWO_N2-ZdH-xex5rD-166" value="" style="endArrow=none;rounded=0;fontSize=16;fontStyle=0" parent="1" source="VqWSWO_N2-ZdH-xex5rD-161" target="VqWSWO_N2-ZdH-xex5rD-158" edge="1">
          <mxGeometry relative="1" as="geometry">
            <mxPoint x="510" y="3910" as="sourcePoint" />
            <mxPoint x="670" y="3910" as="targetPoint" />
          </mxGeometry>
        </mxCell>
        <mxCell id="VqWSWO_N2-ZdH-xex5rD-167" value="" style="endArrow=none;rounded=0;fontSize=16;fontStyle=0" parent="1" source="VqWSWO_N2-ZdH-xex5rD-162" target="VqWSWO_N2-ZdH-xex5rD-158" edge="1">
          <mxGeometry relative="1" as="geometry">
            <mxPoint x="540" y="3910" as="sourcePoint" />
            <mxPoint x="700" y="3910" as="targetPoint" />
          </mxGeometry>
        </mxCell>
        <mxCell id="VqWSWO_N2-ZdH-xex5rD-168" value="" style="endArrow=none;rounded=0;fontSize=16;fontStyle=0" parent="1" source="VqWSWO_N2-ZdH-xex5rD-160" target="VqWSWO_N2-ZdH-xex5rD-158" edge="1">
          <mxGeometry relative="1" as="geometry">
            <mxPoint x="540" y="3910" as="sourcePoint" />
            <mxPoint x="700" y="3910" as="targetPoint" />
          </mxGeometry>
        </mxCell>
        <mxCell id="VqWSWO_N2-ZdH-xex5rD-169" value=" assign" style="shape=rhombus;perimeter=rhombusPerimeter;whiteSpace=wrap;align=center;fillColor=#f9f7ed;strokeColor=#36393d;fontSize=16;fontStyle=0" parent="1" vertex="1">
          <mxGeometry x="581" y="3850" width="120" height="60" as="geometry" />
        </mxCell>
        <mxCell id="VqWSWO_N2-ZdH-xex5rD-170" value="" style="endArrow=none;rounded=0;fontSize=16;fontStyle=0" parent="1" source="VqWSWO_N2-ZdH-xex5rD-150" target="VqWSWO_N2-ZdH-xex5rD-169" edge="1">
          <mxGeometry relative="1" as="geometry">
            <mxPoint x="565" y="3920" as="sourcePoint" />
            <mxPoint x="712.5" y="3670" as="targetPoint" />
          </mxGeometry>
        </mxCell>
        <mxCell id="VqWSWO_N2-ZdH-xex5rD-171" value="" style="endArrow=none;rounded=0;fontSize=16;fontStyle=0" parent="1" source="VqWSWO_N2-ZdH-xex5rD-169" target="VqWSWO_N2-ZdH-xex5rD-158" edge="1">
          <mxGeometry relative="1" as="geometry">
            <mxPoint x="450" y="3730" as="sourcePoint" />
            <mxPoint x="610" y="3730" as="targetPoint" />
          </mxGeometry>
        </mxCell>
        <mxCell id="VqWSWO_N2-ZdH-xex5rD-172" value="M" style="text;align=center;verticalAlign=middle;resizable=0;points=[];autosize=1;strokeColor=none;fillColor=none;fontSize=16;fontStyle=0" parent="1" vertex="1">
          <mxGeometry x="572" y="3840" width="40" height="30" as="geometry" />
        </mxCell>
        <mxCell id="VqWSWO_N2-ZdH-xex5rD-173" value="M" style="text;align=center;verticalAlign=middle;resizable=0;points=[];autosize=1;strokeColor=none;fillColor=none;fontSize=16;fontStyle=0" parent="1" vertex="1">
          <mxGeometry x="690" y="3880" width="40" height="30" as="geometry" />
        </mxCell>
        <mxCell id="VqWSWO_N2-ZdH-xex5rD-178" value="hostess2" style="ellipse;whiteSpace=wrap;align=center;fontSize=16;fontStyle=0" parent="1" vertex="1">
          <mxGeometry x="13" y="4010" width="100" height="40" as="geometry" />
        </mxCell>
        <mxCell id="VqWSWO_N2-ZdH-xex5rD-179" value="hostess1" style="ellipse;whiteSpace=wrap;align=center;fontSize=16;fontStyle=0" parent="1" vertex="1">
          <mxGeometry x="13" y="4080" width="100" height="40" as="geometry" />
        </mxCell>
        <mxCell id="VqWSWO_N2-ZdH-xex5rD-180" value=" assistant pilot" style="ellipse;whiteSpace=wrap;align=center;fontSize=16;fontStyle=0" parent="1" vertex="1">
          <mxGeometry x="156" y="4080" width="130" height="40" as="geometry" />
        </mxCell>
        <mxCell id="VqWSWO_N2-ZdH-xex5rD-181" value="major pilot" style="ellipse;whiteSpace=wrap;align=center;fontSize=16;fontStyle=0" parent="1" vertex="1">
          <mxGeometry x="13" y="3930" width="100" height="40" as="geometry" />
        </mxCell>
        <mxCell id="VqWSWO_N2-ZdH-xex5rD-182" value="" style="endArrow=none;rounded=0;fontSize=16;fontStyle=0" parent="1" source="VqWSWO_N2-ZdH-xex5rD-181" target="0DTk706HkaVIBCQfY6v8-13" edge="1">
          <mxGeometry relative="1" as="geometry">
            <mxPoint x="525" y="3536" as="sourcePoint" />
            <mxPoint x="171" y="3984.177215189873" as="targetPoint" />
          </mxGeometry>
        </mxCell>
        <mxCell id="VqWSWO_N2-ZdH-xex5rD-183" value="" style="endArrow=none;rounded=0;fontSize=16;fontStyle=0" parent="1" source="VqWSWO_N2-ZdH-xex5rD-180" target="0DTk706HkaVIBCQfY6v8-13" edge="1">
          <mxGeometry relative="1" as="geometry">
            <mxPoint x="525" y="3536" as="sourcePoint" />
            <mxPoint x="221" y="4020" as="targetPoint" />
          </mxGeometry>
        </mxCell>
        <mxCell id="VqWSWO_N2-ZdH-xex5rD-184" value="" style="endArrow=none;rounded=0;fontSize=16;fontStyle=0" parent="1" source="VqWSWO_N2-ZdH-xex5rD-179" target="0DTk706HkaVIBCQfY6v8-13" edge="1">
          <mxGeometry relative="1" as="geometry">
            <mxPoint x="525" y="3536" as="sourcePoint" />
            <mxPoint x="189.40000000000032" y="4020" as="targetPoint" />
          </mxGeometry>
        </mxCell>
        <mxCell id="VqWSWO_N2-ZdH-xex5rD-185" value="" style="endArrow=none;rounded=0;fontSize=16;fontStyle=0" parent="1" source="0DTk706HkaVIBCQfY6v8-13" target="VqWSWO_N2-ZdH-xex5rD-178" edge="1">
          <mxGeometry relative="1" as="geometry">
            <mxPoint x="171" y="4009.5601463764287" as="sourcePoint" />
            <mxPoint x="685" y="3536" as="targetPoint" />
          </mxGeometry>
        </mxCell>
        <mxCell id="VqWSWO_N2-ZdH-xex5rD-186" value="Transaction" style="whiteSpace=wrap;align=center;fillColor=#cce5ff;strokeColor=#36393d;fontSize=18;fontStyle=0" parent="1" vertex="1">
          <mxGeometry x="561" y="3640" width="100" height="40" as="geometry" />
        </mxCell>
        <mxCell id="VqWSWO_N2-ZdH-xex5rD-187" value="number of passengers" style="ellipse;whiteSpace=wrap;align=center;fillColor=#eeeeee;strokeColor=#36393d;fontSize=16;fontStyle=0" parent="1" vertex="1">
          <mxGeometry x="344.25" y="3870" width="178.25" height="40" as="geometry" />
        </mxCell>
        <mxCell id="VqWSWO_N2-ZdH-xex5rD-188" value=" price" style="ellipse;whiteSpace=wrap;align=center;fillColor=#eeeeee;strokeColor=#36393d;fontSize=16;fontStyle=0" parent="1" vertex="1">
          <mxGeometry x="542" y="3970" width="100" height="40" as="geometry" />
        </mxCell>
        <mxCell id="VqWSWO_N2-ZdH-xex5rD-189" value="departure time" style="ellipse;whiteSpace=wrap;align=center;fillColor=#eeeeee;strokeColor=#36393d;fontSize=16;fontStyle=0" parent="1" vertex="1">
          <mxGeometry x="587" y="4020" width="170" height="40" as="geometry" />
        </mxCell>
        <mxCell id="VqWSWO_N2-ZdH-xex5rD-190" value="arrival time" style="ellipse;whiteSpace=wrap;align=center;fillColor=#eeeeee;strokeColor=#36393d;fontSize=16;fontStyle=0" parent="1" vertex="1">
          <mxGeometry x="463" y="3930" width="100" height="40" as="geometry" />
        </mxCell>
        <mxCell id="VqWSWO_N2-ZdH-xex5rD-192" value="travel time" style="ellipse;whiteSpace=wrap;align=center;fillColor=#eeeeee;strokeColor=#36393d;fontSize=16;fontStyle=0" parent="1" vertex="1">
          <mxGeometry x="701" y="3950" width="100" height="40" as="geometry" />
        </mxCell>
        <mxCell id="VqWSWO_N2-ZdH-xex5rD-193" value="" style="endArrow=none;rounded=0;fontSize=16;fontStyle=0" parent="1" source="VqWSWO_N2-ZdH-xex5rD-190" target="VqWSWO_N2-ZdH-xex5rD-169" edge="1">
          <mxGeometry relative="1" as="geometry">
            <mxPoint x="644.37" y="3930" as="sourcePoint" />
            <mxPoint x="804.37" y="3930" as="targetPoint" />
          </mxGeometry>
        </mxCell>
        <mxCell id="VqWSWO_N2-ZdH-xex5rD-194" value="" style="endArrow=none;rounded=0;fontSize=16;fontStyle=0" parent="1" source="VqWSWO_N2-ZdH-xex5rD-169" target="VqWSWO_N2-ZdH-xex5rD-188" edge="1">
          <mxGeometry relative="1" as="geometry">
            <mxPoint x="644.37" y="3930" as="sourcePoint" />
            <mxPoint x="804.37" y="3930" as="targetPoint" />
          </mxGeometry>
        </mxCell>
        <mxCell id="VqWSWO_N2-ZdH-xex5rD-195" value="" style="endArrow=none;rounded=0;fontSize=16;fontStyle=0" parent="1" source="VqWSWO_N2-ZdH-xex5rD-169" target="VqWSWO_N2-ZdH-xex5rD-189" edge="1">
          <mxGeometry relative="1" as="geometry">
            <mxPoint x="644.37" y="3930" as="sourcePoint" />
            <mxPoint x="804.37" y="3930" as="targetPoint" />
          </mxGeometry>
        </mxCell>
        <mxCell id="VqWSWO_N2-ZdH-xex5rD-196" value="" style="endArrow=none;rounded=0;fontSize=16;fontStyle=0" parent="1" source="VqWSWO_N2-ZdH-xex5rD-169" target="VqWSWO_N2-ZdH-xex5rD-187" edge="1">
          <mxGeometry relative="1" as="geometry">
            <mxPoint x="644.37" y="3930" as="sourcePoint" />
            <mxPoint x="804.37" y="3930" as="targetPoint" />
          </mxGeometry>
        </mxCell>
        <mxCell id="VqWSWO_N2-ZdH-xex5rD-197" value="" style="endArrow=none;rounded=0;fontSize=16;fontStyle=0" parent="1" source="VqWSWO_N2-ZdH-xex5rD-192" target="VqWSWO_N2-ZdH-xex5rD-169" edge="1">
          <mxGeometry relative="1" as="geometry">
            <mxPoint x="644.37" y="3930" as="sourcePoint" />
            <mxPoint x="804.37" y="3930" as="targetPoint" />
          </mxGeometry>
        </mxCell>
        <mxCell id="VqWSWO_N2-ZdH-xex5rD-198" value="" style="edgeStyle=orthogonalEdgeStyle;rounded=0;orthogonalLoop=1;jettySize=auto;exitX=0.5;exitY=1;exitDx=0;exitDy=0;fontSize=16;fontStyle=0" parent="1" source="VqWSWO_N2-ZdH-xex5rD-192" target="VqWSWO_N2-ZdH-xex5rD-192" edge="1">
          <mxGeometry relative="1" as="geometry" />
        </mxCell>
        <mxCell id="VqWSWO_N2-ZdH-xex5rD-201" value="" style="endArrow=none;rounded=0;fontSize=16;fontStyle=0;shape=link;" parent="1" source="0DTk706HkaVIBCQfY6v8-13" target="Ec7F1qs_xOphDIz-z7Vr-2" edge="1">
          <mxGeometry relative="1" as="geometry">
            <mxPoint x="220.63636363636374" y="3980" as="sourcePoint" />
            <mxPoint x="219.5405405405404" y="3919.72972972973" as="targetPoint" />
          </mxGeometry>
        </mxCell>
        <mxCell id="VqWSWO_N2-ZdH-xex5rD-202" value="" style="endArrow=none;rounded=0;fontSize=16;fontStyle=0;shape=link;" parent="1" source="Ec7F1qs_xOphDIz-z7Vr-2" target="VqWSWO_N2-ZdH-xex5rD-150" edge="1">
          <mxGeometry relative="1" as="geometry">
            <mxPoint x="219.2298850574714" y="3860.114942528736" as="sourcePoint" />
            <mxPoint x="690" y="3640" as="targetPoint" />
          </mxGeometry>
        </mxCell>
        <mxCell id="VqWSWO_N2-ZdH-xex5rD-205" value="ID_T" style="ellipse;whiteSpace=wrap;align=center;fontStyle=4;fontSize=16;" parent="1" vertex="1">
          <mxGeometry x="561" y="3554" width="100" height="40" as="geometry" />
        </mxCell>
        <mxCell id="VqWSWO_N2-ZdH-xex5rD-206" value="date" style="ellipse;whiteSpace=wrap;align=center;fontSize=16;fontStyle=0" parent="1" vertex="1">
          <mxGeometry x="701" y="3597" width="100" height="40" as="geometry" />
        </mxCell>
        <mxCell id="VqWSWO_N2-ZdH-xex5rD-207" value="description" style="ellipse;whiteSpace=wrap;align=center;fontSize=16;fontStyle=0" parent="1" vertex="1">
          <mxGeometry x="701" y="3683" width="110" height="40" as="geometry" />
        </mxCell>
        <mxCell id="VqWSWO_N2-ZdH-xex5rD-208" value="Amount" style="ellipse;whiteSpace=wrap;align=center;fontSize=16;fontStyle=0" parent="1" vertex="1">
          <mxGeometry x="561" y="3726" width="100" height="40" as="geometry" />
        </mxCell>
        <mxCell id="VqWSWO_N2-ZdH-xex5rD-212" value="" style="endArrow=none;rounded=0;fontSize=16;fontStyle=0" parent="1" source="VqWSWO_N2-ZdH-xex5rD-186" target="VqWSWO_N2-ZdH-xex5rD-205" edge="1">
          <mxGeometry relative="1" as="geometry">
            <mxPoint x="638.5" y="3715" as="sourcePoint" />
            <mxPoint x="798.5" y="3715" as="targetPoint" />
          </mxGeometry>
        </mxCell>
        <mxCell id="VqWSWO_N2-ZdH-xex5rD-213" value="" style="endArrow=none;rounded=0;fontSize=16;fontStyle=0" parent="1" source="VqWSWO_N2-ZdH-xex5rD-208" target="VqWSWO_N2-ZdH-xex5rD-186" edge="1">
          <mxGeometry relative="1" as="geometry">
            <mxPoint x="638.5" y="3715" as="sourcePoint" />
            <mxPoint x="798.5" y="3715" as="targetPoint" />
          </mxGeometry>
        </mxCell>
        <mxCell id="VqWSWO_N2-ZdH-xex5rD-214" value="" style="endArrow=none;rounded=0;fontSize=16;fontStyle=0" parent="1" source="VqWSWO_N2-ZdH-xex5rD-207" target="VqWSWO_N2-ZdH-xex5rD-186" edge="1">
          <mxGeometry relative="1" as="geometry">
            <mxPoint x="638.5" y="3715" as="sourcePoint" />
            <mxPoint x="798.5" y="3715" as="targetPoint" />
          </mxGeometry>
        </mxCell>
        <mxCell id="VqWSWO_N2-ZdH-xex5rD-215" value="" style="endArrow=none;rounded=0;fontSize=16;fontStyle=0" parent="1" source="VqWSWO_N2-ZdH-xex5rD-206" target="VqWSWO_N2-ZdH-xex5rD-186" edge="1">
          <mxGeometry relative="1" as="geometry">
            <mxPoint x="638.5" y="3715" as="sourcePoint" />
            <mxPoint x="798.5" y="3715" as="targetPoint" />
          </mxGeometry>
        </mxCell>
        <mxCell id="VqWSWO_N2-ZdH-xex5rD-216" value="works " style="shape=rhombus;perimeter=rhombusPerimeter;whiteSpace=wrap;align=center;fillColor=#f9f7ed;strokeColor=#36393d;fontSize=16;fontStyle=0" parent="1" vertex="1">
          <mxGeometry x="530" y="3440" width="120" height="60" as="geometry" />
        </mxCell>
        <mxCell id="VqWSWO_N2-ZdH-xex5rD-218" value="" style="endArrow=none;rounded=0;fontSize=16;fontStyle=0;shape=link;" parent="1" source="VqWSWO_N2-ZdH-xex5rD-115" target="VqWSWO_N2-ZdH-xex5rD-216" edge="1">
          <mxGeometry relative="1" as="geometry">
            <mxPoint x="450" y="3670" as="sourcePoint" />
            <mxPoint x="610" y="3670" as="targetPoint" />
          </mxGeometry>
        </mxCell>
        <mxCell id="VqWSWO_N2-ZdH-xex5rD-219" value="" style="endArrow=none;rounded=0;fontSize=16;fontStyle=0;shape=link;" parent="1" source="VqWSWO_N2-ZdH-xex5rD-127" target="VqWSWO_N2-ZdH-xex5rD-216" edge="1">
          <mxGeometry relative="1" as="geometry">
            <mxPoint x="450" y="3670" as="sourcePoint" />
            <mxPoint x="610" y="3670" as="targetPoint" />
          </mxGeometry>
        </mxCell>
        <mxCell id="VqWSWO_N2-ZdH-xex5rD-220" value="1" style="text;align=center;verticalAlign=middle;resizable=0;points=[];autosize=1;strokeColor=none;fillColor=none;fontSize=16;fontStyle=0" parent="1" vertex="1">
          <mxGeometry x="510" y="3440" width="30" height="30" as="geometry" />
        </mxCell>
        <mxCell id="VqWSWO_N2-ZdH-xex5rD-221" value="M" style="text;align=center;verticalAlign=middle;resizable=0;points=[];autosize=1;strokeColor=none;fillColor=none;fontSize=16;fontStyle=0" parent="1" vertex="1">
          <mxGeometry x="645" y="3455" width="40" height="30" as="geometry" />
        </mxCell>
        <mxCell id="VqWSWO_N2-ZdH-xex5rD-224" value="owns" style="shape=rhombus;perimeter=rhombusPerimeter;whiteSpace=wrap;align=center;fillColor=#f9f7ed;strokeColor=#36393d;fontSize=16;fontStyle=0" parent="1" vertex="1">
          <mxGeometry x="159" y="3570" width="120" height="60" as="geometry" />
        </mxCell>
        <mxCell id="VqWSWO_N2-ZdH-xex5rD-225" value="" style="endArrow=none;rounded=0;fontSize=16;fontStyle=0;shape=link;" parent="1" source="VqWSWO_N2-ZdH-xex5rD-224" target="VqWSWO_N2-ZdH-xex5rD-150" edge="1">
          <mxGeometry relative="1" as="geometry">
            <mxPoint x="480" y="3710" as="sourcePoint" />
            <mxPoint x="640" y="3710" as="targetPoint" />
          </mxGeometry>
        </mxCell>
        <mxCell id="VqWSWO_N2-ZdH-xex5rD-226" value="" style="endArrow=none;rounded=0;fontSize=16;fontStyle=0;shape=link;" parent="1" source="VqWSWO_N2-ZdH-xex5rD-115" target="VqWSWO_N2-ZdH-xex5rD-224" edge="1">
          <mxGeometry relative="1" as="geometry">
            <mxPoint x="480" y="3710" as="sourcePoint" />
            <mxPoint x="640" y="3710" as="targetPoint" />
          </mxGeometry>
        </mxCell>
        <mxCell id="VqWSWO_N2-ZdH-xex5rD-227" value="1" style="text;align=center;verticalAlign=middle;resizable=0;points=[];autosize=1;strokeColor=none;fillColor=none;fontSize=16;fontStyle=0" parent="1" vertex="1">
          <mxGeometry x="213" y="3540" width="30" height="30" as="geometry" />
        </mxCell>
        <mxCell id="VqWSWO_N2-ZdH-xex5rD-228" value="M" style="text;align=center;verticalAlign=middle;resizable=0;points=[];autosize=1;strokeColor=none;fillColor=none;fontSize=16;fontStyle=0" parent="1" vertex="1">
          <mxGeometry x="210" y="3625" width="40" height="30" as="geometry" />
        </mxCell>
        <mxCell id="VqWSWO_N2-ZdH-xex5rD-232" value="" style="endArrow=none;rounded=0;fontSize=16;fontStyle=0;shape=link;" parent="1" source="VqWSWO_N2-ZdH-xex5rD-230" target="VqWSWO_N2-ZdH-xex5rD-186" edge="1">
          <mxGeometry relative="1" as="geometry">
            <mxPoint x="456.5" y="3755" as="sourcePoint" />
            <mxPoint x="616.5" y="3755" as="targetPoint" />
          </mxGeometry>
        </mxCell>
        <mxCell id="VqWSWO_N2-ZdH-xex5rD-233" value="" style="endArrow=none;rounded=0;fontSize=16;fontStyle=0;shape=link;" parent="1" source="VqWSWO_N2-ZdH-xex5rD-115" target="VqWSWO_N2-ZdH-xex5rD-230" edge="1">
          <mxGeometry relative="1" as="geometry">
            <mxPoint x="480" y="3710" as="sourcePoint" />
            <mxPoint x="640" y="3710" as="targetPoint" />
          </mxGeometry>
        </mxCell>
        <mxCell id="VqWSWO_N2-ZdH-xex5rD-240" value="contact person" style="ellipse;whiteSpace=wrap;align=center;fontSize=16;fontStyle=0" parent="1" vertex="1">
          <mxGeometry x="300" y="3370" width="140" height="40" as="geometry" />
        </mxCell>
        <mxCell id="VqWSWO_N2-ZdH-xex5rD-242" value="" style="group;fontSize=16;fontStyle=0" parent="1" vertex="1" connectable="0">
          <mxGeometry x="165" y="3835" width="134" height="85" as="geometry" />
        </mxCell>
        <mxCell id="VqWSWO_N2-ZdH-xex5rD-203" value="1" style="text;align=center;verticalAlign=middle;resizable=0;points=[];autosize=1;strokeColor=none;fillColor=none;fontSize=16;fontStyle=0" parent="VqWSWO_N2-ZdH-xex5rD-242" vertex="1">
          <mxGeometry x="52" y="-10" width="30" height="30" as="geometry" />
        </mxCell>
        <mxCell id="Ec7F1qs_xOphDIz-z7Vr-2" value="&lt;font style=&quot;font-size: 16px;&quot;&gt;Has&lt;/font&gt;" style="shape=rhombus;double=1;perimeter=rhombusPerimeter;whiteSpace=wrap;html=1;align=center;fillColor=#f9f7ed;strokeColor=#36393d;" vertex="1" parent="VqWSWO_N2-ZdH-xex5rD-242">
          <mxGeometry x="-5.75" y="25" width="120" height="60" as="geometry" />
        </mxCell>
        <mxCell id="VqWSWO_N2-ZdH-xex5rD-246" value="" style="group;fontSize=16;fontStyle=0" parent="1" vertex="1" connectable="0">
          <mxGeometry x="362.5" y="3520" width="170" height="60" as="geometry" />
        </mxCell>
        <mxCell id="VqWSWO_N2-ZdH-xex5rD-230" value="Sell/Buy" style="shape=rhombus;perimeter=rhombusPerimeter;whiteSpace=wrap;align=center;fillColor=#f9f7ed;strokeColor=#36393d;fontSize=16;fontStyle=0" parent="VqWSWO_N2-ZdH-xex5rD-246" vertex="1">
          <mxGeometry x="6.5" y="45" width="120" height="60" as="geometry" />
        </mxCell>
        <mxCell id="VqWSWO_N2-ZdH-xex5rD-239" value="1" style="text;align=center;verticalAlign=middle;resizable=0;points=[];autosize=1;strokeColor=none;fillColor=none;fontSize=16;fontStyle=0" parent="VqWSWO_N2-ZdH-xex5rD-246" vertex="1">
          <mxGeometry x="17.5" y="15" width="30" height="30" as="geometry" />
        </mxCell>
        <mxCell id="VqWSWO_N2-ZdH-xex5rD-204" value="1" style="text;align=center;verticalAlign=middle;resizable=0;points=[];autosize=1;strokeColor=none;fillColor=none;fontSize=16;fontStyle=0" parent="1" vertex="1">
          <mxGeometry x="215" y="3920" width="30" height="30" as="geometry" />
        </mxCell>
        <mxCell id="VqWSWO_N2-ZdH-xex5rD-238" value="M" style="text;align=center;verticalAlign=middle;resizable=0;points=[];autosize=1;strokeColor=none;fillColor=none;fontSize=16;fontStyle=0" parent="1" vertex="1">
          <mxGeometry x="482.5" y="3585" width="40" height="30" as="geometry" />
        </mxCell>
        <mxCell id="VqWSWO_N2-ZdH-xex5rD-254" value="" style="rounded=0;orthogonalLoop=1;jettySize=auto;endArrow=none;startFill=0;fontSize=16;fontStyle=0" parent="1" source="VqWSWO_N2-ZdH-xex5rD-247" target="VqWSWO_N2-ZdH-xex5rD-250" edge="1">
          <mxGeometry relative="1" as="geometry" />
        </mxCell>
        <mxCell id="VqWSWO_N2-ZdH-xex5rD-248" value="" style="endArrow=none;rounded=0;fontSize=16;fontStyle=0" parent="1" source="VqWSWO_N2-ZdH-xex5rD-98" target="VqWSWO_N2-ZdH-xex5rD-247" edge="1">
          <mxGeometry relative="1" as="geometry">
            <mxPoint x="490" y="2780" as="sourcePoint" />
            <mxPoint x="650" y="2780" as="targetPoint" />
          </mxGeometry>
        </mxCell>
        <mxCell id="VqWSWO_N2-ZdH-xex5rD-249" value="" style="endArrow=none;rounded=0;fontSize=16;fontStyle=0" parent="1" source="VqWSWO_N2-ZdH-xex5rD-247" target="VqWSWO_N2-ZdH-xex5rD-67" edge="1">
          <mxGeometry relative="1" as="geometry">
            <mxPoint x="490" y="2780" as="sourcePoint" />
            <mxPoint x="650" y="2780" as="targetPoint" />
          </mxGeometry>
        </mxCell>
        <mxCell id="VqWSWO_N2-ZdH-xex5rD-250" value="Date" style="ellipse;whiteSpace=wrap;align=center;fillColor=#eeeeee;strokeColor=#36393d;fontSize=16;fontStyle=0" parent="1" vertex="1">
          <mxGeometry x="535" y="2920" width="100" height="40" as="geometry" />
        </mxCell>
        <mxCell id="VqWSWO_N2-ZdH-xex5rD-251" value="Time" style="ellipse;whiteSpace=wrap;align=center;fillColor=#eeeeee;strokeColor=#36393d;fontSize=16;fontStyle=0" parent="1" vertex="1">
          <mxGeometry x="655" y="2920" width="100" height="40" as="geometry" />
        </mxCell>
        <mxCell id="VqWSWO_N2-ZdH-xex5rD-252" value="Dosage" style="ellipse;whiteSpace=wrap;align=center;fillColor=#eeeeee;strokeColor=#36393d;fontSize=16;fontStyle=0" parent="1" vertex="1">
          <mxGeometry x="670" y="2822.5" width="100" height="40" as="geometry" />
        </mxCell>
        <mxCell id="VqWSWO_N2-ZdH-xex5rD-255" value="" style="rounded=0;orthogonalLoop=1;jettySize=auto;endArrow=none;startFill=0;fontSize=16;fontStyle=0" parent="1" source="VqWSWO_N2-ZdH-xex5rD-247" target="VqWSWO_N2-ZdH-xex5rD-251" edge="1">
          <mxGeometry relative="1" as="geometry">
            <mxPoint x="578" y="2848" as="sourcePoint" />
            <mxPoint x="609" y="2780" as="targetPoint" />
          </mxGeometry>
        </mxCell>
        <mxCell id="VqWSWO_N2-ZdH-xex5rD-257" value="title" style="ellipse;whiteSpace=wrap;align=center;fontStyle=4;fontSize=16;" parent="1" vertex="1">
          <mxGeometry x="269" y="1500" width="100" height="40" as="geometry" />
        </mxCell>
        <mxCell id="VqWSWO_N2-ZdH-xex5rD-258" value="copyright date" style="ellipse;whiteSpace=wrap;align=center;fontSize=16;fontStyle=0" parent="1" vertex="1">
          <mxGeometry x="91.75" y="1500" width="143" height="40" as="geometry" />
        </mxCell>
        <mxCell id="VqWSWO_N2-ZdH-xex5rD-259" value="album identifier" style="ellipse;whiteSpace=wrap;align=center;fontSize=16;fontStyle=0" parent="1" vertex="1">
          <mxGeometry x="60" y="1409" width="150" height="40" as="geometry" />
        </mxCell>
        <mxCell id="VqWSWO_N2-ZdH-xex5rD-262" value="" style="endArrow=none;rounded=0;fontSize=16;fontStyle=0" parent="1" source="VqWSWO_N2-ZdH-xex5rD-259" target="Eth2tqY2PSBvd6cBm0Ug-130" edge="1">
          <mxGeometry relative="1" as="geometry">
            <mxPoint x="560" y="1320" as="sourcePoint" />
            <mxPoint x="720" y="1320" as="targetPoint" />
          </mxGeometry>
        </mxCell>
        <mxCell id="VqWSWO_N2-ZdH-xex5rD-263" value="" style="endArrow=none;rounded=0;fontSize=16;fontStyle=0" parent="1" source="VqWSWO_N2-ZdH-xex5rD-258" target="Eth2tqY2PSBvd6cBm0Ug-130" edge="1">
          <mxGeometry relative="1" as="geometry">
            <mxPoint x="560" y="1320" as="sourcePoint" />
            <mxPoint x="720" y="1320" as="targetPoint" />
          </mxGeometry>
        </mxCell>
        <mxCell id="VqWSWO_N2-ZdH-xex5rD-264" value="" style="endArrow=none;rounded=0;fontSize=16;fontStyle=0" parent="1" source="Eth2tqY2PSBvd6cBm0Ug-130" target="VqWSWO_N2-ZdH-xex5rD-257" edge="1">
          <mxGeometry relative="1" as="geometry">
            <mxPoint x="560" y="1320" as="sourcePoint" />
            <mxPoint x="720" y="1320" as="targetPoint" />
          </mxGeometry>
        </mxCell>
        <mxCell id="VqWSWO_N2-ZdH-xex5rD-266" value="" style="endArrow=none;rounded=0;fontSize=16;fontStyle=0;shape=link;" parent="1" source="VqWSWO_N2-ZdH-xex5rD-62" target="VqWSWO_N2-ZdH-xex5rD-265" edge="1">
          <mxGeometry relative="1" as="geometry">
            <mxPoint x="550" y="2790" as="sourcePoint" />
            <mxPoint x="710" y="2790" as="targetPoint" />
          </mxGeometry>
        </mxCell>
        <mxCell id="VqWSWO_N2-ZdH-xex5rD-267" value="" style="endArrow=none;rounded=0;fontSize=16;fontStyle=0" parent="1" source="VqWSWO_N2-ZdH-xex5rD-265" target="VqWSWO_N2-ZdH-xex5rD-98" edge="1">
          <mxGeometry relative="1" as="geometry">
            <mxPoint x="550" y="2790" as="sourcePoint" />
            <mxPoint x="710" y="2790" as="targetPoint" />
          </mxGeometry>
        </mxCell>
        <mxCell id="VqWSWO_N2-ZdH-xex5rD-271" value="" style="endArrow=none;rounded=0;shape=link;fontSize=16;fontStyle=0" parent="1" source="VqWSWO_N2-ZdH-xex5rD-98" target="VqWSWO_N2-ZdH-xex5rD-270" edge="1">
          <mxGeometry relative="1" as="geometry">
            <mxPoint x="260" y="2810" as="sourcePoint" />
            <mxPoint x="420" y="2810" as="targetPoint" />
          </mxGeometry>
        </mxCell>
        <mxCell id="VqWSWO_N2-ZdH-xex5rD-272" value="" style="endArrow=none;rounded=0;fontSize=16;fontStyle=0" parent="1" source="VqWSWO_N2-ZdH-xex5rD-270" target="VqWSWO_N2-ZdH-xex5rD-62" edge="1">
          <mxGeometry relative="1" as="geometry">
            <mxPoint x="260" y="2810" as="sourcePoint" />
            <mxPoint x="420" y="2810" as="targetPoint" />
          </mxGeometry>
        </mxCell>
        <mxCell id="VqWSWO_N2-ZdH-xex5rD-275" value="" style="endArrow=none;rounded=0;fontSize=16;fontStyle=0" parent="1" source="VqWSWO_N2-ZdH-xex5rD-247" target="VqWSWO_N2-ZdH-xex5rD-102" edge="1">
          <mxGeometry relative="1" as="geometry">
            <mxPoint x="400" y="2780" as="sourcePoint" />
            <mxPoint x="560" y="2780" as="targetPoint" />
          </mxGeometry>
        </mxCell>
        <mxCell id="VqWSWO_N2-ZdH-xex5rD-276" value="" style="group;fontSize=16;fontStyle=0" parent="1" vertex="1" connectable="0">
          <mxGeometry x="239" y="2755" width="120" height="110" as="geometry" />
        </mxCell>
        <mxCell id="VqWSWO_N2-ZdH-xex5rD-270" value="serve " style="shape=rhombus;perimeter=rhombusPerimeter;whiteSpace=wrap;align=center;fillColor=#f9f7ed;strokeColor=#36393d;fontSize=16;fontStyle=0" parent="VqWSWO_N2-ZdH-xex5rD-276" vertex="1">
          <mxGeometry y="22" width="120" height="60" as="geometry" />
        </mxCell>
        <mxCell id="VqWSWO_N2-ZdH-xex5rD-273" value="1" style="text;align=center;verticalAlign=middle;resizable=0;points=[];autosize=1;strokeColor=none;fillColor=none;fontSize=16;fontStyle=0" parent="VqWSWO_N2-ZdH-xex5rD-276" vertex="1">
          <mxGeometry x="40.25" width="30" height="30" as="geometry" />
        </mxCell>
        <mxCell id="VqWSWO_N2-ZdH-xex5rD-274" value="M" style="text;align=center;verticalAlign=middle;resizable=0;points=[];autosize=1;strokeColor=none;fillColor=none;fontSize=16;fontStyle=0" parent="VqWSWO_N2-ZdH-xex5rD-276" vertex="1">
          <mxGeometry x="45.25" y="80" width="40" height="30" as="geometry" />
        </mxCell>
        <mxCell id="VqWSWO_N2-ZdH-xex5rD-278" value="" style="group;fontSize=16;fontStyle=0" parent="1" vertex="1" connectable="0">
          <mxGeometry x="39.99999999999999" y="2755" width="120" height="110" as="geometry" />
        </mxCell>
        <mxCell id="VqWSWO_N2-ZdH-xex5rD-265" value="supervise " style="shape=rhombus;perimeter=rhombusPerimeter;whiteSpace=wrap;align=center;fillColor=#f9f7ed;strokeColor=#36393d;fontSize=16;fontStyle=0" parent="VqWSWO_N2-ZdH-xex5rD-278" vertex="1">
          <mxGeometry y="22" width="120" height="60" as="geometry" />
        </mxCell>
        <mxCell id="VqWSWO_N2-ZdH-xex5rD-277" value="" style="group;fontSize=16;fontStyle=0" parent="VqWSWO_N2-ZdH-xex5rD-278" vertex="1" connectable="0">
          <mxGeometry x="50" width="30" height="110" as="geometry" />
        </mxCell>
        <mxCell id="VqWSWO_N2-ZdH-xex5rD-268" value="1" style="text;align=center;verticalAlign=middle;resizable=0;points=[];autosize=1;strokeColor=none;fillColor=none;fontSize=16;fontStyle=0" parent="VqWSWO_N2-ZdH-xex5rD-277" vertex="1">
          <mxGeometry width="30" height="30" as="geometry" />
        </mxCell>
        <mxCell id="VqWSWO_N2-ZdH-xex5rD-279" value="" style="group;fontSize=16;fontStyle=0" parent="1" vertex="1" connectable="0">
          <mxGeometry x="165" y="1972" width="120" height="110" as="geometry" />
        </mxCell>
        <mxCell id="VqWSWO_N2-ZdH-xex5rD-46" value="listed " style="shape=rhombus;perimeter=rhombusPerimeter;whiteSpace=wrap;align=center;fillColor=#f9f7ed;strokeColor=#36393d;fontSize=16;fontStyle=0" parent="VqWSWO_N2-ZdH-xex5rD-279" vertex="1">
          <mxGeometry y="22" width="120" height="60" as="geometry" />
        </mxCell>
        <mxCell id="VqWSWO_N2-ZdH-xex5rD-49" value="1" style="text;align=center;verticalAlign=middle;resizable=0;points=[];autosize=1;strokeColor=none;fillColor=none;fontSize=16;fontStyle=0" parent="VqWSWO_N2-ZdH-xex5rD-279" vertex="1">
          <mxGeometry x="60" width="30" height="30" as="geometry" />
        </mxCell>
        <mxCell id="VqWSWO_N2-ZdH-xex5rD-50" value="M" style="text;align=center;verticalAlign=middle;resizable=0;points=[];autosize=1;strokeColor=none;fillColor=none;fontSize=16;fontStyle=0" parent="VqWSWO_N2-ZdH-xex5rD-279" vertex="1">
          <mxGeometry x="55" y="80" width="40" height="30" as="geometry" />
        </mxCell>
        <mxCell id="0DTk706HkaVIBCQfY6v8-3" value="" style="endArrow=none;html=1;rounded=0;shape=link;" parent="1" source="Eth2tqY2PSBvd6cBm0Ug-4" target="0DTk706HkaVIBCQfY6v8-1" edge="1">
          <mxGeometry relative="1" as="geometry">
            <mxPoint x="530.75" y="440" as="sourcePoint" />
            <mxPoint x="690.75" y="440" as="targetPoint" />
          </mxGeometry>
        </mxCell>
        <mxCell id="0DTk706HkaVIBCQfY6v8-4" value="" style="endArrow=none;html=1;rounded=0;" parent="1" source="0DTk706HkaVIBCQfY6v8-1" target="Eth2tqY2PSBvd6cBm0Ug-5" edge="1">
          <mxGeometry relative="1" as="geometry">
            <mxPoint x="530.75" y="440" as="sourcePoint" />
            <mxPoint x="690.75" y="440" as="targetPoint" />
          </mxGeometry>
        </mxCell>
        <mxCell id="0DTk706HkaVIBCQfY6v8-7" value="" style="group" parent="1" vertex="1" connectable="0">
          <mxGeometry x="530.75" y="180" width="172.5" height="72" as="geometry" />
        </mxCell>
        <mxCell id="0DTk706HkaVIBCQfY6v8-1" value="&lt;font style=&quot;font-size: 16px;&quot;&gt;Locate&lt;/font&gt;" style="shape=rhombus;perimeter=rhombusPerimeter;whiteSpace=wrap;html=1;align=center;fillColor=#f9f7ed;strokeColor=#36393d;" parent="0DTk706HkaVIBCQfY6v8-7" vertex="1">
          <mxGeometry x="35" y="12" width="120" height="60" as="geometry" />
        </mxCell>
        <mxCell id="0DTk706HkaVIBCQfY6v8-5" value="&lt;font style=&quot;font-size: 16px;&quot;&gt;M&lt;/font&gt;" style="text;html=1;align=center;verticalAlign=middle;resizable=0;points=[];autosize=1;strokeColor=none;fillColor=none;" parent="0DTk706HkaVIBCQfY6v8-7" vertex="1">
          <mxGeometry y="12" width="40" height="30" as="geometry" />
        </mxCell>
        <mxCell id="0DTk706HkaVIBCQfY6v8-6" value="&lt;font style=&quot;font-size: 16px;&quot;&gt;1&lt;/font&gt;" style="text;html=1;align=center;verticalAlign=middle;resizable=0;points=[];autosize=1;strokeColor=none;fillColor=none;" parent="0DTk706HkaVIBCQfY6v8-7" vertex="1">
          <mxGeometry x="142.5" width="30" height="30" as="geometry" />
        </mxCell>
        <mxCell id="0DTk706HkaVIBCQfY6v8-12" value="" style="group" parent="1" vertex="1" connectable="0">
          <mxGeometry x="467.5" y="2750" width="165" height="112.5" as="geometry" />
        </mxCell>
        <mxCell id="VqWSWO_N2-ZdH-xex5rD-247" value="Nursing" style="shape=rhombus;perimeter=rhombusPerimeter;whiteSpace=wrap;align=center;fillColor=#f9f7ed;strokeColor=#36393d;fontSize=16;fontStyle=0" parent="0DTk706HkaVIBCQfY6v8-12" vertex="1">
          <mxGeometry x="42.5" y="22.5" width="120" height="60" as="geometry" />
        </mxCell>
        <mxCell id="VqWSWO_N2-ZdH-xex5rD-256" value="" style="rounded=0;orthogonalLoop=1;jettySize=auto;endArrow=none;startFill=0;fontSize=16;fontStyle=0" parent="0DTk706HkaVIBCQfY6v8-12" source="VqWSWO_N2-ZdH-xex5rD-247" target="VqWSWO_N2-ZdH-xex5rD-252" edge="1">
          <mxGeometry relative="1" as="geometry">
            <mxPoint x="120.5" y="108" as="sourcePoint" />
            <mxPoint x="151.5" y="40" as="targetPoint" />
          </mxGeometry>
        </mxCell>
        <mxCell id="0DTk706HkaVIBCQfY6v8-9" value="&lt;font style=&quot;font-size: 16px;&quot;&gt;M&lt;/font&gt;" style="text;html=1;align=center;verticalAlign=middle;resizable=0;points=[];autosize=1;strokeColor=none;fillColor=none;" parent="0DTk706HkaVIBCQfY6v8-12" vertex="1">
          <mxGeometry x="125" width="40" height="30" as="geometry" />
        </mxCell>
        <mxCell id="0DTk706HkaVIBCQfY6v8-10" value="&lt;font style=&quot;font-size: 16px;&quot;&gt;M&lt;/font&gt;" style="text;html=1;align=center;verticalAlign=middle;resizable=0;points=[];autosize=1;strokeColor=none;fillColor=none;" parent="0DTk706HkaVIBCQfY6v8-12" vertex="1">
          <mxGeometry x="25" y="82.5" width="40" height="30" as="geometry" />
        </mxCell>
        <mxCell id="0DTk706HkaVIBCQfY6v8-11" value="&lt;font style=&quot;font-size: 16px;&quot;&gt;M&lt;/font&gt;" style="text;html=1;align=center;verticalAlign=middle;resizable=0;points=[];autosize=1;strokeColor=none;fillColor=none;" parent="0DTk706HkaVIBCQfY6v8-12" vertex="1">
          <mxGeometry y="52.5" width="40" height="30" as="geometry" />
        </mxCell>
        <mxCell id="0DTk706HkaVIBCQfY6v8-13" value="&lt;span style=&quot;font-size: 18px;&quot;&gt;Crew&lt;/span&gt;" style="shape=ext;margin=3;double=1;whiteSpace=wrap;html=1;align=center;fillColor=#cce5ff;strokeColor=#36393d;" parent="1" vertex="1">
          <mxGeometry x="171" y="3980" width="100" height="40" as="geometry" />
        </mxCell>
        <mxCell id="VqWSWO_N2-ZdH-xex5rD-269" value="1" style="text;align=center;verticalAlign=middle;resizable=0;points=[];autosize=1;strokeColor=none;fillColor=none;fontSize=16;fontStyle=0" parent="1" vertex="1">
          <mxGeometry x="100" y="2835" width="30" height="30" as="geometry" />
        </mxCell>
      </root>
    </mxGraphModel>
  </diagram>
</mxfile>
